<svg width="36" height="36" viewBox="0 0 36 36" fill="none" xmlns="http://www.w3.org/2000/svg">
<circle cx="18" cy="18" r="18" fill="#ACE7D1"/>
<mask id="mask0_180_1300" style="mask-type:alpha" maskUnits="userSpaceOnUse" x="0" y="0" width="36" height="36">
<circle cx="18" cy="18" r="18" fill="#E4F6FF"/>
</mask>
<g mask="url(#mask0_180_1300)">
<circle opacity="0.7" cx="24" cy="24.3934" r="16" fill="#E6FFF6"/>
<circle cx="9.06664" cy="3.93445" r="16" fill="#E6FFF6"/>
</g>
<path d="M9.00003 28.9181C9.00003 28.9181 7.20003 28.9181 7.20003 27.1476C7.20003 25.3771 9.00003 20.0656 18 20.0656C27 20.0656 28.8 25.3771 28.8 27.1476C28.8 28.9181 27 28.9181 27 28.9181H9.00003ZM18 18.2951C19.4322 18.2951 20.8057 17.7355 21.8184 16.7394C22.8311 15.7433 23.4 14.3923 23.4 12.9836C23.4 11.5749 22.8311 10.224 21.8184 9.22786C20.8057 8.23177 19.4322 7.67216 18 7.67216C16.5679 7.67216 15.1943 8.23177 14.1817 9.22786C13.169 10.224 12.6 11.5749 12.6 12.9836C12.6 14.3923 13.169 15.7433 14.1817 16.7394C15.1943 17.7355 16.5679 18.2951 18 18.2951Z" fill="#2FC28B"/>
</svg>
