<svg width="16" height="16" viewBox="0 0 16 16" fill="none" xmlns="http://www.w3.org/2000/svg">
<path fill-rule="evenodd" clip-rule="evenodd" d="M14.6663 7.99992C14.6663 11.6818 11.6816 14.6666 7.99967 14.6666C4.31778 14.6666 1.33301 11.6818 1.33301 7.99992C1.33301 4.31802 4.31778 1.33325 7.99967 1.33325C11.6816 1.33325 14.6663 4.31802 14.6663 7.99992ZM5.97943 5.97969C6.17469 5.78442 6.49127 5.78442 6.68653 5.97969L7.99965 7.29281L9.31276 5.9797C9.50802 5.78444 9.8246 5.78444 10.0199 5.9797C10.2151 6.17496 10.2151 6.49154 10.0199 6.68681L8.70676 7.99991L10.0199 9.31301C10.2151 9.50827 10.2151 9.82485 10.0199 10.0201C9.82459 10.2154 9.50801 10.2154 9.31275 10.0201L7.99965 8.70702L6.68655 10.0201C6.49129 10.2154 6.1747 10.2154 5.97944 10.0201C5.78418 9.82486 5.78418 9.50828 5.97944 9.31302L7.29255 7.99991L5.97943 6.68679C5.78416 6.49153 5.78416 6.17495 5.97943 5.97969Z" fill="#CD3737"/>
</svg>
