<svg width="32" height="32" viewBox="0 0 32 32" fill="none" xmlns="http://www.w3.org/2000/svg">
<path d="M19.3905 17.5294C19.3905 18.4375 19.1316 19.3253 18.6466 20.0804C18.1617 20.8355 17.4724 21.4241 16.6659 21.7716C15.8594 22.1191 14.972 22.2101 14.1159 22.0329C13.2597 21.8557 12.4733 21.4184 11.8561 20.7762C11.2388 20.1341 10.8185 19.3159 10.6482 18.4252C10.4779 17.5344 10.5653 16.6112 10.8993 15.7722C11.2334 14.9331 11.7991 14.216 12.5249 13.7114C13.2507 13.2069 14.104 12.9376 14.9769 12.9376C16.1475 12.9376 17.2701 13.4214 18.0978 14.2825C18.9255 15.1436 19.3905 16.3115 19.3905 17.5294V17.5294ZM19.3395 23.979C19.1029 23.9805 18.87 24.0411 18.6605 24.1556L18.5638 24.2139C17.1977 25.0068 15.6241 25.3257 14.0719 25.1245C12.5196 24.9232 11.0694 24.2122 9.93215 23.0948C8.79487 21.9774 8.02972 20.5118 7.7479 18.9109C7.46608 17.3101 7.68227 15.6575 8.36506 14.1933V9.33305C6.41234 11.0451 5.14125 13.4514 4.79885 16.0841C4.45645 18.7169 5.06721 21.3881 6.5124 23.5784C7.9576 25.7688 10.134 27.3219 12.6185 27.9358C15.1031 28.5496 17.7182 28.1805 19.9557 26.9001C20.0287 26.8595 20.1017 26.8171 20.173 26.7729C20.4322 26.5875 20.6276 26.3207 20.7307 26.0115C20.8338 25.7023 20.8393 25.3669 20.7462 25.0543C20.6531 24.7417 20.4664 24.4682 20.2133 24.2738C19.9603 24.0794 19.6541 23.9743 19.3395 23.9737V23.979ZM14.9837 6.82347C14.0221 6.82295 13.065 6.96204 12.1403 7.23673L10.5701 3.76465V11.4117C11.9174 10.3621 13.5699 9.82527 15.2518 9.89076C16.9337 9.95625 18.5431 10.6201 19.8112 11.7715C21.0792 12.9229 21.9291 14.4921 22.219 16.217C22.5088 17.9419 22.2211 19.718 21.4037 21.2487C21.3732 21.307 21.3409 21.367 21.307 21.4253C21.2078 21.6345 21.1567 21.8649 21.1576 22.0982C21.1594 22.4294 21.2643 22.7512 21.4565 23.0152C21.6488 23.2793 21.9181 23.4714 22.2241 23.5629C22.5301 23.6544 22.8564 23.6402 23.1541 23.5226C23.4517 23.405 23.7048 23.1903 23.8753 22.9106L23.9296 22.8152C24.8172 21.1867 25.2789 19.3446 25.2688 17.4725C25.2586 15.6005 24.777 13.7639 23.8719 12.1459C22.9667 10.5279 21.6698 9.18506 20.1102 8.25117C18.5507 7.31729 16.7831 6.82503 14.9837 6.82347V6.82347ZM25.8241 25.1764C25.5333 25.1764 25.2491 25.2661 25.0074 25.4342C24.7656 25.6022 24.5772 25.8411 24.4659 26.1205C24.3547 26.4 24.3255 26.7075 24.3823 27.0042C24.439 27.3009 24.579 27.5734 24.7846 27.7873C24.9902 28.0012 25.2521 28.1468 25.5373 28.2058C25.8224 28.2649 26.118 28.2346 26.3866 28.1188C26.6553 28.0031 26.8849 27.807 27.0464 27.5555C27.2079 27.304 27.2941 27.0083 27.2941 26.7058C27.2946 26.5047 27.2569 26.3054 27.1832 26.1195C27.1095 25.9335 27.0013 25.7645 26.8648 25.6221C26.7282 25.4797 26.566 25.3667 26.3874 25.2896C26.2089 25.2126 26.0174 25.1729 25.8241 25.1729V25.1764Z" fill="#5B3ACC"/>
</svg>
