<svg width="168" height="168" viewBox="0 0 168 168" fill="none" xmlns="http://www.w3.org/2000/svg">
<g opacity="0.4">
<path d="M116.855 23.0352C118.125 23.0352 125.344 39.9887 125.344 39.9887C125.344 39.9887 140.882 42.6921 141.241 43.4938C141.599 44.2954 130.199 54.1227 130.199 54.1227C130.199 54.1227 134.651 71.557 133.879 72.1609C133.107 72.7637 116.856 64.7908 116.856 64.7908C116.856 64.7908 102.078 72.1373 101.432 71.4954C100.784 70.8536 102.739 54.4898 102.739 54.4898C102.739 54.4898 91.2586 45.9994 91.6422 44.3239C92.0259 42.6483 108.19 40.0988 108.19 40.0988C108.19 40.0988 115.585 23.0352 116.855 23.0352Z" fill="#F9C850"/>
<g opacity="0.5">
<path d="M114.895 26.9698C113.524 29.8817 112.286 32.8539 111.025 35.8155C110.843 36.2441 110.657 36.6704 110.479 37.1003C110.396 37.3004 110.314 37.5017 110.232 37.703C110.145 37.9149 110.104 38.1695 110.049 38.3945C109.981 38.6764 110.363 38.841 110.517 38.5911C110.625 38.4182 110.736 38.2453 110.841 38.0713C110.944 37.9019 111.006 37.6864 111.084 37.504C111.245 37.1287 111.399 36.7509 111.554 36.3732C111.86 35.6343 112.164 34.8942 112.468 34.1553C113.082 32.6668 113.706 31.1819 114.29 29.6815C114.62 28.8313 114.948 27.9823 115.263 27.1261C115.342 26.9118 114.992 26.7626 114.895 26.9698Z" fill="white"/>
<path d="M107.225 41.4613C107.031 41.3961 106.83 41.4435 106.631 41.466C106.433 41.4885 106.237 41.5122 106.041 41.5394C105.609 41.601 105.176 41.6661 104.745 41.7336C104.326 41.7999 103.906 41.8603 103.488 41.9349C103.06 42.0107 102.625 42.0652 102.209 42.1919C102.037 42.244 102.062 42.5199 102.253 42.5128C102.671 42.4974 103.083 42.4133 103.495 42.3494C103.925 42.2819 104.353 42.2037 104.783 42.128C105.2 42.0545 105.618 41.9799 106.034 41.9006C106.236 41.8615 106.438 41.8224 106.638 41.7751C106.844 41.7277 107.066 41.7111 107.24 41.5785C107.284 41.5454 107.282 41.4802 107.225 41.4613Z" fill="white"/>
<path d="M100.772 42.5027C100.246 42.5749 99.7194 42.6329 99.1936 42.7146C98.6595 42.7975 98.1267 42.8828 97.5926 42.9739C97.0716 43.0628 96.5518 43.1539 96.0331 43.251C95.7714 43.2996 95.518 43.3552 95.2622 43.4239C94.9958 43.495 94.727 43.5435 94.4688 43.6442C94.2877 43.7152 94.2972 44.0053 94.5174 44.003C94.7898 44.0006 95.0562 43.9509 95.325 43.913C95.4635 43.8928 95.5997 43.8905 95.7382 43.8632C95.8614 43.8384 95.9857 43.8135 96.1089 43.7886C96.637 43.6832 97.164 43.5719 97.6897 43.4583C98.2048 43.347 98.7176 43.2321 99.2303 43.1113C99.7656 42.987 100.294 42.8401 100.827 42.7063C100.963 42.672 100.901 42.4849 100.772 42.5027Z" fill="white"/>
<path d="M111.151 65.3744C111.043 65.3519 110.966 65.3815 110.867 65.4253C110.719 65.4917 110.574 65.5544 110.432 65.6302C110.18 65.7652 109.923 65.8895 109.673 66.0281C109.164 66.3099 108.649 66.5823 108.142 66.8676C107.127 67.4384 106.113 68.0092 105.1 68.5811C104.525 68.9056 103.925 69.1969 103.423 69.6291C103.248 69.7807 103.434 70.0956 103.652 70.021C104.205 69.8304 104.692 69.5142 105.196 69.2194C105.698 68.9257 106.201 68.632 106.702 68.3372C107.706 67.7486 108.706 67.1518 109.705 66.555C109.98 66.3916 110.246 66.2164 110.52 66.0482C110.663 65.9594 110.807 65.8753 110.941 65.7723C111.054 65.6859 111.171 65.6266 111.218 65.4869C111.23 65.4431 111.198 65.3839 111.151 65.3744Z" fill="white"/>
<path d="M103.272 60.7378C103.119 61.5703 103.007 62.4087 102.9 63.2494C102.847 63.6674 102.803 64.0866 102.756 64.5058C102.708 64.9191 102.617 65.3702 102.684 65.7835C102.719 66.0085 103.021 65.9529 103.086 65.7835C103.16 65.5905 103.17 65.3892 103.194 65.1843C103.219 64.97 103.241 64.7545 103.26 64.539C103.298 64.1198 103.341 63.7018 103.374 63.2826C103.441 62.4454 103.498 61.6094 103.517 60.771C103.521 60.6336 103.298 60.5969 103.272 60.7378Z" fill="white"/>
<path d="M129.44 58.2584C129.435 58.5923 129.474 58.9168 129.513 59.2483C129.552 59.5799 129.583 59.9114 129.629 60.2418C129.725 60.9132 129.831 61.5835 129.951 62.2513C130.192 63.574 130.465 64.8908 130.781 66.1969C130.868 66.5534 130.957 66.9086 131.048 67.2639C131.095 67.4474 131.143 67.6298 131.198 67.8098C131.226 67.8974 131.247 67.9921 131.288 68.0738C131.337 68.1674 131.41 68.2538 131.467 68.3426C131.576 68.5131 131.841 68.4456 131.848 68.2396C131.853 68.0797 131.872 67.9294 131.838 67.7719C131.801 67.5978 131.756 67.4261 131.711 67.2544C131.626 66.9323 131.542 66.6102 131.46 66.2869C131.297 65.6404 131.141 64.9926 130.995 64.3437C130.7 63.0447 130.444 61.7374 130.206 60.4277C130.138 60.0571 130.063 59.6888 129.996 59.3182C129.93 58.9475 129.876 58.5781 129.771 58.2157C129.717 58.031 129.442 58.0677 129.44 58.2584Z" fill="white"/>
<path d="M126.031 67.4596C126.619 67.8397 127.192 68.2352 127.789 68.6023C128.076 68.7788 128.364 68.9564 128.652 69.1328C128.806 69.2275 128.957 69.3235 129.113 69.4147C129.249 69.4952 129.397 69.5935 129.557 69.5366C129.64 69.507 129.676 69.4371 129.662 69.3519C129.634 69.1861 129.474 69.1044 129.34 69.0251C129.185 68.9339 129.027 68.8474 128.87 68.7586C128.576 68.5928 128.283 68.4259 127.989 68.2601C127.38 67.9155 126.756 67.6053 126.14 67.2749C126.017 67.2086 125.915 67.385 126.031 67.4596Z" fill="white"/>
<path d="M137.453 45.7654C137.2 45.8673 136.99 46.0342 136.759 46.1751C136.521 46.3208 136.296 46.4925 136.064 46.6464C135.597 46.9555 135.121 47.2539 134.641 47.544C133.681 48.1254 132.701 48.6713 131.693 49.1663C131.404 49.3084 131.114 49.4493 130.821 49.5843C130.68 49.6495 130.543 49.7229 130.404 49.7939C130.262 49.8673 130.103 49.9254 129.995 50.0473C129.886 50.1705 129.959 50.3647 130.129 50.3706C130.264 50.3753 130.382 50.3232 130.506 50.2759C130.653 50.2214 130.801 50.1669 130.944 50.1053C131.203 49.9952 131.455 49.8709 131.707 49.7489C132.221 49.5003 132.728 49.2338 133.227 48.9579C134.227 48.4061 135.209 47.8081 136.131 47.1343C136.383 46.9496 136.638 46.7696 136.887 46.5813C137.135 46.3942 137.402 46.1929 137.591 45.9466C137.657 45.8649 137.55 45.7252 137.453 45.7654Z" fill="white"/>
<path d="M120.311 32.9484C120.375 33.5251 120.454 34.0959 120.626 34.6524C120.71 34.9212 120.804 35.1877 120.908 35.4505C120.965 35.5926 121.028 35.7324 121.094 35.8709C121.159 36.0071 121.21 36.1539 121.35 36.2273C121.455 36.2818 121.623 36.2416 121.647 36.1066C121.676 35.9396 121.607 35.8235 121.541 35.6755C121.487 35.5547 121.436 35.4328 121.384 35.312C121.272 35.055 121.169 34.7945 121.075 34.5305C120.888 33.9988 120.696 33.4635 120.566 32.9153C120.532 32.7755 120.295 32.8016 120.311 32.9484Z" fill="white"/>
<path d="M134.413 42.4514C134.305 42.3898 134.184 42.3827 134.064 42.3614C133.943 42.3389 133.823 42.314 133.702 42.295C133.449 42.2536 133.197 42.2074 132.944 42.1612C132.45 42.0724 131.953 41.9895 131.46 41.8936C130.966 41.7977 130.473 41.6959 129.981 41.5905C129.74 41.5396 129.5 41.4851 129.258 41.4377C129.005 41.388 128.732 41.2968 128.473 41.3181C128.291 41.3335 128.204 41.5715 128.376 41.6745C128.59 41.8024 128.856 41.8391 129.096 41.8972C129.346 41.9576 129.598 42.0085 129.851 42.0582C130.358 42.1565 130.865 42.2453 131.374 42.3246C131.879 42.404 132.384 42.4833 132.891 42.5425C133.135 42.571 133.379 42.5946 133.623 42.6207C133.757 42.6349 133.889 42.6432 134.022 42.6527C134.145 42.6621 134.265 42.6858 134.384 42.6515C134.477 42.6266 134.496 42.4987 134.413 42.4514Z" fill="white"/>
</g>
<path d="M85.3071 135.943C46.4764 127.886 20.9804 91.039 29.0373 52.2071C32.3589 36.1961 42.2904 22.8614 53.7565 12.9121C59.9366 7.54909 75.0464 1.7195 74.6355 0.259438C74.2258 -1.20181 51.946 3.64612 41.3833 11.3632C21.7264 22.9478 6.84274 42.465 1.84206 66.5661C-7.56367 111.904 19.8803 155.933 65.218 165.34C110.556 174.747 157.768 146.206 167.175 100.869C167.551 99.0522 168.314 95.4358 166.964 95.1895C165.614 94.942 156.469 113.73 148.727 120.642C132.332 135.28 108.482 140.751 85.3071 135.943Z" fill="#F9C850"/>
<mask id="mask0_69_2032" style="mask-type:luminance" maskUnits="userSpaceOnUse" x="0" y="0" width="168" height="168">
<path d="M85.3071 135.944C46.4764 127.887 20.9804 91.04 29.0373 52.208C32.3589 36.1971 42.2904 22.8624 53.7565 12.9131C59.9366 7.55006 75.0464 1.72048 74.6355 0.260414C74.2258 -1.20083 51.946 3.6471 41.3833 11.3642C21.7264 22.9488 6.84274 42.466 1.84206 66.5671C-7.56367 111.905 19.8803 155.934 65.218 165.341C110.556 174.748 157.768 146.207 167.175 100.87C167.551 99.0532 168.314 95.4367 166.964 95.1904C165.614 94.9429 156.469 113.731 148.727 120.643C132.332 135.281 108.482 140.752 85.3071 135.944Z" fill="white"/>
</mask>
<g mask="url(#mask0_69_2032)">
<path d="M163.803 91.2142C163.72 91.4984 163.895 91.7128 164.017 91.9614C164.159 92.2539 164.319 92.5357 164.475 92.8223C164.762 93.3493 165.037 93.8833 165.285 94.4292C165.779 95.5139 166.227 96.614 166.614 97.7413C167.388 99.9959 167.913 102.341 168.143 104.715C168.275 106.087 168.395 107.451 168.401 108.831C168.402 109.185 168.914 109.174 168.943 108.831C169.051 107.604 169.096 106.356 169.017 105.126C168.936 103.883 168.739 102.637 168.49 101.418C167.999 99.0261 167.23 96.64 166.122 94.4588C165.818 93.8584 165.498 93.264 165.161 92.6814C164.986 92.3794 164.818 92.0633 164.607 91.7838C164.424 91.5411 164.26 91.187 163.938 91.1373C163.879 91.1278 163.822 91.1515 163.803 91.2142Z" fill="#F9C850"/>
<path d="M162.84 91.7304C162.775 91.8677 162.736 91.9577 162.788 92.1081C162.855 92.3011 162.931 92.4942 163.008 92.6836C163.149 93.033 163.318 93.3716 163.463 93.7198C163.755 94.4255 164.06 95.1265 164.338 95.8382C164.897 97.2663 165.389 98.7204 165.816 100.194C166.66 103.117 167.249 106.119 167.543 109.148C167.626 110.002 167.699 110.859 167.765 111.715C167.798 112.144 167.825 112.573 167.85 113.001C167.876 113.439 167.883 113.88 167.966 114.312C168.01 114.54 168.376 114.536 168.422 114.312C168.577 113.561 168.535 112.751 168.53 111.988C168.524 111.22 168.498 110.457 168.429 109.692C168.292 108.139 168.081 106.594 167.8 105.062C167.241 102.017 166.386 99.0295 165.252 96.1496C164.936 95.3468 164.604 94.5475 164.241 93.7648C164.056 93.3657 163.85 92.9737 163.65 92.5818C163.555 92.3971 163.445 92.2218 163.336 92.0442C163.283 91.9577 163.231 91.8393 163.149 91.7766C163.081 91.7245 162.993 91.7173 162.91 91.702C162.884 91.6972 162.852 91.7055 162.84 91.7304Z" fill="#F9C850"/>
<path d="M160.928 94.0117C162.329 96.6393 163.565 99.3593 164.41 102.218C165.252 105.067 165.744 108.02 165.855 110.99C165.886 111.833 165.896 112.678 165.876 113.521C165.856 114.363 165.795 115.203 165.771 116.045C165.763 116.357 166.266 116.438 166.325 116.12C166.599 114.638 166.644 113.09 166.606 111.586C166.568 110.064 166.429 108.547 166.201 107.043C165.745 104.045 164.892 101.114 163.697 98.3291C163.021 96.753 162.201 95.2479 161.225 93.8388C161.099 93.6576 160.822 93.8139 160.928 94.0117Z" fill="#F9C850"/>
<path d="M159.404 96.4477C159.518 96.8823 159.707 97.292 159.857 97.7148C160.004 98.128 160.162 98.5366 160.31 98.9498C160.609 99.7882 160.885 100.637 161.135 101.492C161.636 103.204 162.017 104.953 162.297 106.714C162.851 110.215 162.897 113.766 162.531 117.288C162.428 118.281 162.257 119.258 162.104 120.244C161.95 121.243 161.745 122.226 161.554 123.218C161.499 123.51 161.899 123.622 162 123.341C162.611 121.643 162.971 119.849 163.211 118.064C163.454 116.261 163.557 114.442 163.535 112.623C163.494 109.046 163.018 105.393 161.95 101.972C161.65 101.01 161.34 100.056 160.966 99.1203C160.776 98.6467 160.594 98.1612 160.367 97.7041C160.139 97.247 159.942 96.7651 159.648 96.3459C159.565 96.2239 159.363 96.2938 159.404 96.4477Z" fill="#F9C850"/>
<path d="M159.498 104.716C159.499 105.157 159.602 105.587 159.662 106.022C159.724 106.464 159.814 106.902 159.881 107.343C160.013 108.205 160.108 109.074 160.188 109.942C160.352 111.689 160.412 113.448 160.367 115.201C160.275 118.713 159.738 122.209 158.807 125.594C158.544 126.551 158.247 127.498 157.916 128.433C157.755 128.887 157.603 129.344 157.444 129.8C157.279 130.276 157.068 130.743 156.948 131.233C156.877 131.521 157.254 131.666 157.415 131.43C157.671 131.053 157.847 130.627 158.036 130.214C158.22 129.812 158.408 129.418 158.563 129.004C158.883 128.159 159.174 127.304 159.437 126.44C159.957 124.733 160.361 123 160.645 121.239C161.216 117.698 161.354 114.079 160.989 110.509C160.887 109.515 160.74 108.529 160.561 107.546C160.47 107.047 160.374 106.547 160.26 106.052C160.15 105.572 160.028 105.07 159.809 104.63C159.733 104.481 159.498 104.558 159.498 104.716Z" fill="#F9C850"/>
<path d="M157.842 113.729C157.856 115.563 157.721 117.407 157.529 119.229C157.336 121.059 157.031 122.878 156.62 124.672C155.8 128.245 154.594 131.717 152.958 135C152.499 135.921 152.012 136.829 151.494 137.719C151.231 138.169 150.973 138.621 150.703 139.066C150.575 139.276 150.424 139.482 150.316 139.702C150.196 139.947 150.097 140.204 149.979 140.452C149.871 140.675 150.152 140.936 150.343 140.731C150.492 140.57 150.643 140.413 150.795 140.253C150.971 140.067 151.107 139.855 151.248 139.643C151.51 139.251 151.767 138.854 152.015 138.453C152.495 137.672 152.935 136.863 153.354 136.048C154.209 134.384 154.96 132.665 155.607 130.911C156.904 127.398 157.764 123.733 158.151 120.007C158.369 117.914 158.385 115.831 158.289 113.73C158.274 113.444 157.839 113.44 157.842 113.729Z" fill="#F9C850"/>
<path d="M155.867 118.633C155.854 119.195 155.797 119.761 155.759 120.323C155.723 120.863 155.676 121.401 155.628 121.94C155.531 123.034 155.384 124.125 155.217 125.21C154.882 127.387 154.387 129.545 153.74 131.651C152.447 135.864 150.546 139.875 148.071 143.521C147.379 144.541 146.638 145.523 145.872 146.488C145.492 146.966 145.102 147.436 144.702 147.898C144.502 148.129 144.304 148.362 144.103 148.592C143.883 148.843 143.7 149.117 143.49 149.374C143.266 149.648 143.609 150.001 143.882 149.765C144.095 149.581 144.331 149.417 144.53 149.218C144.729 149.019 144.925 148.818 145.119 148.612C145.503 148.202 145.873 147.776 146.236 147.347C146.973 146.479 147.661 145.571 148.315 144.639C149.596 142.814 150.735 140.891 151.724 138.893C153.706 134.885 155.102 130.582 155.763 126.157C155.946 124.925 156.093 123.676 156.129 122.43C156.147 121.797 156.173 121.167 156.161 120.532C156.15 119.895 156.096 119.266 156.06 118.632C156.054 118.509 155.871 118.507 155.867 118.633Z" fill="#F9C850"/>
<path d="M153.346 123.27C153.089 124.231 153 125.233 152.784 126.205C152.568 127.181 152.398 128.166 152.172 129.141C151.72 131.09 151.182 133.021 150.558 134.922C149.31 138.721 147.731 142.406 145.807 145.911C145.266 146.897 144.704 147.873 144.116 148.833C143.529 149.794 142.906 150.729 142.325 151.692C142.154 151.974 142.578 152.324 142.794 152.053C144.05 150.47 145.11 148.71 146.096 146.948C147.086 145.18 147.992 143.364 148.809 141.509C150.436 137.817 151.721 133.976 152.591 130.034C152.834 128.934 153.048 127.827 153.232 126.716C153.325 126.152 153.392 125.581 153.465 125.015C153.539 124.449 153.61 123.876 153.599 123.304C153.595 123.16 153.383 123.127 153.346 123.27Z" fill="#F9C850"/>
<path d="M149.013 130.468C148.721 131.255 148.546 132.08 148.312 132.886C148.081 133.679 147.826 134.468 147.573 135.255C147.063 136.842 146.49 138.412 145.863 139.955C144.609 143.037 143.12 146.021 141.394 148.866C140.913 149.658 140.374 150.419 139.91 151.218C139.433 152.04 138.854 152.798 138.369 153.615C138.22 153.867 138.579 154.159 138.783 153.934C139.355 153.3 139.839 152.595 140.336 151.902C140.579 151.564 140.823 151.234 141.049 150.884C141.28 150.525 141.506 150.165 141.729 149.802C142.613 148.36 143.44 146.883 144.204 145.373C145.723 142.371 146.998 139.248 147.986 136.031C148.265 135.119 148.523 134.205 148.738 133.276C148.949 132.358 149.21 131.445 149.288 130.505C149.301 130.338 149.063 130.329 149.013 130.468Z" fill="#F9C850"/>
<path d="M145.378 134.847C145.116 135.565 144.95 136.316 144.717 137.044C144.483 137.771 144.238 138.498 143.979 139.218C143.474 140.628 142.891 142.018 142.245 143.37C140.929 146.119 139.352 148.734 137.534 151.18C137.032 151.857 136.509 152.516 135.966 153.159C135.411 153.818 134.809 154.439 134.281 155.119C134.07 155.39 134.39 155.724 134.661 155.499C135.258 155.003 135.773 154.414 136.286 153.833C136.792 153.26 137.281 152.673 137.754 152.073C138.717 150.855 139.609 149.598 140.422 148.275C141.236 146.952 141.979 145.585 142.647 144.183C143.303 142.805 143.914 141.377 144.38 139.922C144.645 139.091 144.928 138.266 145.13 137.418C145.331 136.581 145.585 135.746 145.669 134.888C145.686 134.711 145.431 134.702 145.378 134.847Z" fill="#F9C850"/>
<path d="M140.491 140.344C140.356 140.724 140.195 141.093 140.047 141.469C139.899 141.843 139.764 142.222 139.62 142.597C139.343 143.321 139.034 144.037 138.719 144.745C138.076 146.189 137.329 147.585 136.512 148.939C134.877 151.644 132.931 154.129 130.709 156.375C130.08 157.011 129.424 157.617 128.759 158.215C128.097 158.812 127.385 159.352 126.743 159.969C126.486 160.215 126.815 160.636 127.12 160.458C127.822 160.053 128.448 159.525 129.071 159.01C129.689 158.498 130.282 157.957 130.859 157.399C132.012 156.284 133.085 155.084 134.081 153.827C136.089 151.29 137.745 148.53 139.047 145.57C139.41 144.745 139.733 143.913 140.028 143.064C140.177 142.633 140.338 142.199 140.451 141.757C140.563 141.31 140.651 140.863 140.751 140.414C140.789 140.246 140.549 140.182 140.491 140.344Z" fill="#F9C850"/>
<path d="M136.732 142.992C135.756 144.67 134.779 146.336 133.694 147.946C132.623 149.538 131.455 151.064 130.2 152.517C127.68 155.435 124.828 158.059 121.712 160.329C120.845 160.96 119.955 161.559 119.063 162.154C118.151 162.761 117.183 163.275 116.267 163.877C115.959 164.079 116.225 164.497 116.549 164.36C117.453 163.976 118.3 163.47 119.141 162.967C119.984 162.463 120.809 161.942 121.614 161.378C123.211 160.26 124.738 159.043 126.186 157.737C129.089 155.12 131.668 152.15 133.866 148.918C135.093 147.115 136.225 145.206 137.088 143.201C137.191 142.962 136.869 142.755 136.732 142.992Z" fill="#F9C850"/>
<path d="M131.725 147.694C131.572 147.872 131.382 148.03 131.246 148.221C131.087 148.444 130.931 148.667 130.771 148.888C130.475 149.295 130.171 149.692 129.849 150.079C129.203 150.854 128.614 151.673 127.944 152.431C126.598 153.957 125.204 155.428 123.708 156.808C120.738 159.547 117.432 161.884 113.89 163.826C112.893 164.372 111.873 164.865 110.849 165.356C109.828 165.845 108.774 166.258 107.751 166.742C107.453 166.883 107.665 167.353 107.973 167.268C108.957 166.996 109.891 166.585 110.835 166.198C111.789 165.806 112.716 165.344 113.632 164.869C115.446 163.925 117.19 162.854 118.863 161.679C122.219 159.321 125.278 156.556 127.931 153.428C128.667 152.561 129.361 151.654 130.029 150.735C130.36 150.278 130.656 149.792 130.965 149.319C131.126 149.072 131.285 148.824 131.442 148.574C131.602 148.318 131.699 148.046 131.823 147.771C131.85 147.709 131.775 147.636 131.725 147.694Z" fill="#F9C850"/>
<path d="M125.206 151.988C122.38 155.169 119.286 158.121 115.962 160.779C112.644 163.433 109.077 165.776 105.336 167.791C104.284 168.358 103.213 168.89 102.14 169.418C101.07 169.946 99.9603 170.391 98.9029 170.942C98.5962 171.102 98.807 171.604 99.1385 171.502C100.172 171.182 101.161 170.725 102.145 170.276C103.126 169.83 104.093 169.361 105.049 168.86C106.935 167.871 108.773 166.796 110.556 165.632C114.137 163.294 117.563 160.637 120.62 157.642C122.349 155.949 123.994 154.181 125.529 152.31C125.713 152.088 125.404 151.766 125.206 151.988Z" fill="#F9C850"/>
<path d="M118.605 153.891C116.978 155.414 115.389 156.972 113.711 158.44C112.043 159.899 110.295 161.286 108.494 162.579C104.873 165.179 101.043 167.467 97.0122 169.375C95.8991 169.902 94.7789 170.414 93.6445 170.894C93.0726 171.136 92.5231 171.419 91.9535 171.664C91.3757 171.912 90.7931 172.148 90.2282 172.425C90.0044 172.535 90.1666 172.863 90.3916 172.813C90.9517 172.688 91.4964 172.513 92.0412 172.332C92.5598 172.159 93.0962 172.02 93.6031 171.818C94.6605 171.396 95.7144 170.959 96.7458 170.477C98.7636 169.535 100.735 168.496 102.654 167.365C106.523 165.086 110.156 162.439 113.517 159.462C115.393 157.801 117.229 156.041 118.803 154.087C118.913 153.951 118.739 153.765 118.605 153.891Z" fill="#F9C850"/>
<path d="M112.195 157.025C111.326 157.75 110.491 158.515 109.627 159.246C108.784 159.959 107.913 160.631 107.029 161.292C105.236 162.629 103.356 163.845 101.414 164.952C97.5509 167.154 93.4265 168.849 89.1458 170.045C87.9451 170.381 86.7289 170.665 85.514 170.945C84.2813 171.231 83.0131 171.384 81.791 171.707C81.5293 171.777 81.585 172.175 81.855 172.177C82.9835 172.185 84.1262 171.977 85.2345 171.784C86.3512 171.591 87.4525 171.356 88.5502 171.072C90.7397 170.507 92.8877 169.791 94.9836 168.941C99.1673 167.245 103.128 165.04 106.753 162.347C107.776 161.587 108.766 160.778 109.729 159.943C110.683 159.116 111.638 158.248 112.463 157.29C112.62 157.105 112.38 156.869 112.195 157.025Z" fill="#F9C850"/>
<path d="M103.664 158.043C102.9 158.681 102.175 159.371 101.422 160.023C100.677 160.666 99.9063 161.27 99.1224 161.863C97.5462 163.057 95.8872 164.144 94.1714 165.126C92.4757 166.099 90.7184 166.976 88.9138 167.729C87.0914 168.489 85.2275 169.089 83.3352 169.645C82.2778 169.957 81.2156 170.229 80.1356 170.453C79.0367 170.681 77.926 170.834 76.8283 171.065C76.5133 171.131 76.5843 171.635 76.9041 171.625C77.9177 171.593 78.9219 171.426 79.9189 171.249C80.9006 171.074 81.8704 170.852 82.8414 170.632C84.7894 170.19 86.697 169.511 88.5455 168.757C92.2531 167.244 95.7368 165.259 98.9151 162.821C99.8091 162.135 100.669 161.406 101.507 160.653C102.335 159.909 103.178 159.124 103.88 158.258C104.005 158.107 103.816 157.915 103.664 158.043Z" fill="#F9C850"/>
<path d="M95.7056 160.626C94.8862 161.16 94.0916 161.73 93.2781 162.274C92.4823 162.804 91.683 163.333 90.8707 163.837C89.2223 164.859 87.5184 165.796 85.7836 166.662C82.3199 168.395 78.6834 169.78 74.9474 170.8C73.9053 171.084 72.8562 171.347 71.8023 171.581C71.5382 171.639 71.2741 171.696 71.0101 171.752C70.7318 171.81 70.4689 171.905 70.193 171.967C69.6566 172.091 69.1142 172.194 68.5873 172.351C68.354 172.421 68.3907 172.789 68.6453 172.783C69.1368 172.773 69.6234 172.703 70.1101 172.634C70.3564 172.6 70.6063 172.6 70.8514 172.561C71.0941 172.522 71.3345 172.468 71.5749 172.419C72.5376 172.224 73.4968 172.009 74.4465 171.757C76.3459 171.254 78.2204 170.656 80.0594 169.963C81.8924 169.271 83.6936 168.489 85.4508 167.622C87.1963 166.759 88.9228 165.817 90.5498 164.748C92.384 163.542 94.2408 162.314 95.8418 160.801C95.9342 160.717 95.8145 160.556 95.7056 160.626Z" fill="#F9C850"/>
<path d="M88.3914 161.257C85.18 162.896 81.9035 164.423 78.5571 165.767C75.2071 167.113 71.7884 168.281 68.3058 169.235C67.3218 169.503 66.3318 169.75 65.3431 170C64.3567 170.249 63.349 170.44 62.3803 170.753C62.0559 170.858 62.089 171.415 62.4656 171.381C63.3833 171.297 64.2821 171.084 65.1809 170.885C66.0749 170.688 66.963 170.464 67.8476 170.226C69.6025 169.753 71.3444 169.226 73.0685 168.65C76.525 167.491 79.9011 166.119 83.18 164.528C85.0284 163.631 86.8224 162.639 88.5774 161.574C88.7787 161.45 88.601 161.15 88.3914 161.257Z" fill="#F9C850"/>
<path d="M85.3242 161.044C83.664 161.842 82.0346 162.714 80.3472 163.451C78.6645 164.187 76.9854 164.909 75.2577 165.537C71.8 166.793 68.2404 167.763 64.6193 168.421C63.6139 168.605 62.6039 168.755 61.5938 168.904C60.5624 169.057 59.5168 169.125 58.4948 169.326C58.1242 169.399 58.2272 169.952 58.5813 169.964C59.5108 169.995 60.4404 169.871 61.3641 169.765C62.3031 169.659 63.2374 169.524 64.1681 169.364C65.9811 169.054 67.7798 168.659 69.5572 168.188C73.1487 167.236 76.6337 165.944 79.9908 164.351C81.8783 163.456 83.7351 162.448 85.4391 161.237C85.5563 161.155 85.4568 160.98 85.3242 161.044Z" fill="#F9C850"/>
<path d="M78.8673 162.965C78.364 163.114 77.8844 163.338 77.3942 163.529C76.9028 163.72 76.4078 163.902 75.9105 164.076C74.9383 164.415 73.9542 164.725 72.9619 165.001C70.9512 165.561 68.905 165.996 66.8375 166.283C62.7297 166.856 58.5164 166.868 54.4062 166.302C53.2576 166.145 52.1102 165.996 50.9722 165.768C49.8117 165.536 48.6643 165.254 47.5121 164.983C47.2421 164.919 47.1462 165.298 47.3996 165.393C48.3884 165.761 49.4091 166.054 50.4346 166.303C50.9473 166.428 51.4612 166.544 51.9787 166.65C52.4962 166.757 53.003 166.887 53.5264 166.967C55.6247 167.284 57.7432 167.458 59.8664 167.483C64.0855 167.531 68.352 166.997 72.4172 165.861C73.5433 165.546 74.6588 165.189 75.7542 164.779C76.3083 164.572 76.859 164.353 77.4037 164.125C77.9543 163.892 78.5251 163.676 79.0343 163.361C79.2356 163.233 79.1077 162.894 78.8673 162.965Z" fill="#F9C850"/>
<path d="M73.7368 162.007C71.7355 162.473 69.7284 162.919 67.6905 163.192C65.6691 163.462 63.6359 163.623 61.5968 163.671C57.5257 163.767 53.4427 163.38 49.4628 162.515C48.3449 162.272 47.2425 161.973 46.1341 161.69C45.0139 161.403 43.9304 160.991 42.8138 160.695C42.4988 160.611 42.2691 161.093 42.584 161.24C43.5278 161.681 44.526 161.993 45.5219 162.297C46.5178 162.601 47.5172 162.872 48.5332 163.105C50.5427 163.563 52.5795 163.899 54.6292 164.112C58.7608 164.541 62.9254 164.459 67.038 163.88C69.3282 163.558 71.6349 163.079 73.8362 162.364C74.0624 162.29 73.97 161.952 73.7368 162.007Z" fill="#F9C850"/>
<path d="M64.7752 162.081C60.7941 162.141 56.826 162.04 52.8721 161.528C48.9348 161.019 45.0484 160.18 41.2591 158.992C40.204 158.661 39.1596 158.299 38.1187 157.925C37.0565 157.543 36.0192 157.087 34.9428 156.749C34.5971 156.64 34.3804 157.157 34.6965 157.334C35.5752 157.822 36.5249 158.176 37.4603 158.538C38.3935 158.899 39.3372 159.23 40.2893 159.539C42.1922 160.154 44.1248 160.68 46.0774 161.116C49.9922 161.99 53.9769 162.496 57.9865 162.609C60.2529 162.673 62.5206 162.625 64.774 162.371C64.9552 162.351 64.9659 162.079 64.7752 162.081Z" fill="#F9C850"/>
<path d="M58.3298 158.528C57.347 158.553 56.3629 158.659 55.3801 158.711C54.3949 158.762 53.4049 158.772 52.4185 158.772C50.4564 158.77 48.486 158.646 46.5368 158.422C44.5948 158.199 42.6623 157.855 40.7582 157.411C38.841 156.964 36.9712 156.382 35.1109 155.74C34.076 155.382 33.0517 155 32.044 154.57C31.5301 154.352 31.0209 154.123 30.5152 153.888C30.0096 153.652 29.5182 153.369 28.9853 153.203C28.6514 153.1 28.5282 153.542 28.7662 153.724C29.1677 154.032 29.6402 154.238 30.0925 154.461C30.5354 154.679 30.9818 154.891 31.4306 155.096C32.3483 155.514 33.2814 155.895 34.2181 156.269C36.05 157.001 37.9659 157.55 39.8819 158.011C43.76 158.944 47.7447 159.398 51.7329 159.365C52.8519 159.355 53.9615 159.293 55.0758 159.2C55.6217 159.154 56.1616 159.086 56.7052 159.019C57.2605 158.95 57.8147 158.883 58.3582 158.751C58.4838 158.72 58.4577 158.525 58.3298 158.528Z" fill="#F9C850"/>
<path d="M7.85143 101.045C7.7259 101.456 7.61343 101.858 7.51159 102.276C7.41094 102.688 7.34935 103.11 7.29014 103.532C7.17054 104.38 7.0995 105.237 7.08056 106.093C7.04148 107.806 7.18357 109.523 7.49263 111.208C7.57671 111.666 7.6738 112.123 7.78511 112.577C7.89287 113.018 7.99353 113.608 8.31207 113.948C8.45062 114.096 8.76205 114.038 8.79758 113.82C8.86034 113.423 8.70521 112.984 8.60337 112.599C8.49798 112.2 8.40326 111.797 8.318 111.394C8.14748 110.579 8.01721 109.756 7.93313 108.928C7.76617 107.286 7.765 105.623 7.91776 103.978C7.96039 103.515 8.01485 103.056 8.07524 102.595C8.138 102.115 8.17944 101.634 8.25286 101.155C8.28957 100.898 7.93076 100.784 7.85143 101.045Z" fill="#F9C850"/>
<path d="M6.31911 94.0848C5.68677 95.6941 5.35284 97.391 5.16101 99.1056C4.97036 100.805 4.95497 102.521 5.10536 104.225C5.19062 105.199 5.32206 106.182 5.55415 107.134C5.60152 107.33 5.82295 107.447 6.0136 107.395C6.22438 107.337 6.30846 107.135 6.27412 106.935C5.98755 105.279 5.75071 103.63 5.714 101.945C5.67848 100.274 5.79926 98.6083 6.05859 96.9587C6.20661 96.0197 6.38778 95.0854 6.57843 94.1547C6.61396 93.9842 6.38187 93.9249 6.31911 94.0848Z" fill="#F9C850"/>
<path d="M4.73073 90.1595C4.49153 90.4899 4.39089 90.9458 4.26774 91.333C4.13867 91.7403 4.03327 92.1643 3.94209 92.5811C3.76091 93.3993 3.63422 94.2318 3.54067 95.0631C3.44712 95.892 3.40567 96.728 3.40449 97.5616C3.4033 97.9915 3.40686 98.4237 3.43764 98.8524C3.46843 99.2704 3.46725 99.7499 3.62711 100.14C3.72777 100.383 4.15169 100.47 4.21326 100.14C4.29142 99.7192 4.22511 99.2787 4.20853 98.8524C4.19313 98.4486 4.17182 98.046 4.16827 97.6422C4.1588 96.8085 4.19669 95.9749 4.26537 95.1436C4.33405 94.3135 4.46076 93.4976 4.5993 92.6782C4.6668 92.2779 4.75323 91.8848 4.8302 91.4869C4.90954 91.0831 5.06112 90.6557 5.04809 90.2448C5.0398 90.0671 4.82665 90.0269 4.73073 90.1595Z" fill="#F9C850"/>
<path d="M3.99632 85.7807C2.57771 88.2212 1.86247 91.1177 1.86721 93.9395C1.86721 94.3421 1.88142 94.7282 1.95365 95.1237C2.0247 95.5156 2.02708 95.9194 2.2047 96.283C2.27338 96.4251 2.51021 96.3895 2.54336 96.2391C2.61441 95.9111 2.5777 95.5713 2.57888 95.2385C2.57888 95.0716 2.60731 94.9082 2.60731 94.7424C2.60731 94.5648 2.59783 94.3859 2.59665 94.2071C2.59191 93.5191 2.62389 92.8311 2.68428 92.1467C2.80388 90.7837 3.08097 89.4255 3.50135 88.1241C3.74173 87.3781 4.00106 86.6321 4.30302 85.9086C4.37407 85.7321 4.08869 85.622 3.99632 85.7807Z" fill="#F9C850"/>
<path d="M3.71975 79.8404C3.29582 80.4408 3.03531 81.1264 2.75348 81.8002C2.46574 82.4882 2.25732 83.2188 2.07141 83.9387C1.88668 84.6492 1.74576 85.368 1.64392 86.0963C1.59182 86.4681 1.54801 86.8376 1.52788 87.2129C1.51722 87.406 1.54328 87.5729 1.55867 87.7624C1.57288 87.9495 1.56222 88.1342 1.65221 88.3024C1.73037 88.4504 1.94115 88.4326 2.02286 88.3024C2.11759 88.1531 2.11876 87.9732 2.15429 87.8038C2.19337 87.6155 2.24074 87.445 2.26324 87.252C2.30469 86.8873 2.34495 86.5214 2.3935 86.1578C2.48586 85.4639 2.61375 84.7724 2.76769 84.0903C2.92518 83.3976 3.13714 82.7262 3.33844 82.0465C3.54685 81.3466 3.84408 80.6776 4.03828 79.9742C4.09394 79.7753 3.82987 79.6841 3.71975 79.8404Z" fill="#F9C850"/>
<path d="M4.80661 73.1613C4.359 73.86 4.04283 74.6309 3.69942 75.384C3.36076 76.1276 3.06353 76.8891 2.78052 77.6564C2.49751 78.4249 2.24173 79.2029 2.0049 79.9856C1.88885 80.3705 1.77635 80.7577 1.66978 81.1449C1.56084 81.5416 1.38678 82.0034 1.40572 82.4179C1.41993 82.7447 1.87465 82.9034 2.04635 82.5908C2.24766 82.2237 2.30686 81.7512 2.40514 81.3462C2.50106 80.9554 2.60171 80.5659 2.70828 80.1786C2.92025 79.403 3.1559 78.6333 3.40575 77.8684C3.65443 77.1046 3.92916 76.3503 4.20033 75.5936C4.47979 74.8156 4.83266 74.0648 5.08488 73.2774C5.14054 73.1092 4.89779 73.0192 4.80661 73.1613Z" fill="#F9C850"/>
<path d="M3.99624 70.0499C3.70968 70.5662 3.56047 71.1441 3.38285 71.7042C3.20522 72.2631 3.03944 72.8244 2.87248 73.3869C2.70551 73.9482 2.53973 74.5106 2.37277 75.0731C2.2058 75.6356 1.99029 76.2324 1.99621 76.8221C1.99858 77.0921 2.35618 77.1821 2.4971 76.9583C2.80853 76.4586 2.93406 75.8345 3.08327 75.2697C3.23247 74.7037 3.38284 74.1364 3.53323 73.5704C3.68362 73.0032 3.83282 72.4372 3.97255 71.8676C4.11229 71.2969 4.28399 70.7249 4.30768 70.1352C4.3136 69.9694 4.07558 69.9078 3.99624 70.0499Z" fill="#F9C850"/>
<path d="M10.2567 110.325C9.97609 111.386 9.91924 112.517 9.92635 113.611C9.93464 114.732 10.0211 115.844 10.1809 116.954C10.4983 119.142 11.1318 121.281 12.0093 123.308C12.2544 123.875 12.5244 124.432 12.8145 124.978C12.9649 125.261 13.1153 125.547 13.2834 125.82C13.4587 126.101 13.6327 126.392 13.9075 126.585C14.1644 126.766 14.4273 126.467 14.3847 126.218C14.3385 125.944 14.1763 125.704 14.0448 125.461C13.9158 125.222 13.776 124.988 13.6446 124.75C13.3829 124.274 13.139 123.788 12.9081 123.296C12.4557 122.332 12.0673 121.34 11.744 120.325C11.0904 118.274 10.6913 116.132 10.5587 113.984C10.4841 112.775 10.5291 111.565 10.4699 110.357C10.4663 110.234 10.2887 110.201 10.2567 110.325Z" fill="#F9C850"/>
<path d="M13.9063 118.14C13.9265 118.783 14.0366 119.428 14.1586 120.059C14.2805 120.687 14.4132 121.311 14.5707 121.93C14.8904 123.191 15.2788 124.432 15.7311 125.653C16.6287 128.076 17.7596 130.414 19.1261 132.607C19.8993 133.848 20.7271 135.084 21.685 136.19C21.9645 136.513 22.5412 136.079 22.2842 135.728C21.5311 134.698 20.759 133.685 20.0639 132.613C19.3771 131.552 18.7412 130.457 18.1574 129.337C16.9792 127.078 16.039 124.704 15.3214 122.258C15.1213 121.576 14.9342 120.888 14.7672 120.197C14.5991 119.496 14.4617 118.783 14.2545 118.092C14.1988 117.907 13.9004 117.935 13.9063 118.14Z" fill="#F9C850"/>
</g>
<g opacity="0.5">
<path d="M23.7584 59.2722C23.6932 59.5706 23.5843 59.8654 23.544 60.1674C23.499 60.5013 23.454 60.8352 23.4114 61.1692C23.3332 61.7814 23.2693 62.4054 23.2302 63.0212C23.1485 64.2823 23.1035 65.5446 23.1035 66.8081C23.1023 69.3079 23.2563 71.8052 23.5405 74.2884C24.1124 79.2974 25.1864 84.2768 26.8372 89.0442C27.2919 90.3598 27.7868 91.6611 28.3209 92.9459C28.5968 93.6114 28.9071 94.2592 29.2149 94.9093C29.2907 95.0703 29.3582 95.2432 29.4482 95.396C29.5406 95.5523 29.6673 95.6825 29.7525 95.8424C29.9254 96.168 30.1208 96.4546 30.3659 96.7281C30.5732 96.9602 30.8893 96.7068 30.8443 96.4499C30.7898 96.1396 30.6987 95.8672 30.5897 95.5724C30.5353 95.4267 30.4962 95.2846 30.4595 95.1342C30.4121 94.9389 30.3245 94.7589 30.2463 94.5742C30.0119 94.0259 29.807 93.467 29.5773 92.9175C29.1013 91.776 28.656 90.6214 28.2427 89.4562C27.415 87.1235 26.6915 84.7563 26.103 82.3525C24.9236 77.5342 24.2877 72.614 24.1243 67.6583C24.0781 66.2681 24.0698 64.8744 24.0958 63.4842C24.1089 62.7891 24.1112 62.094 24.1349 61.4001C24.1456 61.0662 24.1479 60.7322 24.1598 60.3983C24.1728 60.0371 24.1243 59.6819 24.1183 59.3207C24.1112 59.1218 23.8022 59.0661 23.7584 59.2722Z" fill="white"/>
<path d="M22.5063 81.1683C22.4128 81.7296 22.3251 82.2779 22.2955 82.8475C22.2671 83.4111 22.2648 83.9748 22.2695 84.5384C22.279 85.6515 22.4199 86.786 22.639 87.8766C23.083 90.0874 23.8823 92.2307 25.0167 94.181C25.3412 94.7387 25.6775 95.3296 26.0884 95.8281C26.279 96.0602 26.4946 96.2781 26.6947 96.5031C26.9149 96.7506 27.1352 96.9851 27.391 97.1958C27.661 97.4185 28.0908 97.1414 27.8978 96.8051C27.6183 96.3208 27.256 95.8838 27.0049 95.3841C26.7657 94.9069 26.4176 94.4723 26.144 94.0128C25.6029 93.1046 25.1221 92.1525 24.7136 91.178C23.8717 89.1685 23.3589 87.0488 23.0937 84.8901C23.0191 84.2803 22.9717 83.6728 22.9599 83.0582C22.9539 82.7646 22.9551 82.4709 22.9622 82.1772C22.9658 82.0233 22.9385 81.8741 22.9409 81.7201C22.9433 81.5555 22.9468 81.3921 22.9528 81.2287C22.9575 80.98 22.5478 80.9137 22.5063 81.1683Z" fill="white"/>
<path d="M34.8535 102.201C34.9517 102.201 34.9517 102.048 34.8535 102.048C34.7552 102.048 34.754 102.201 34.8535 102.201Z" fill="white"/>
<path d="M32.6896 101.849C33.0685 102.952 33.4865 104.032 34.0087 105.075C34.5226 106.101 35.0827 107.102 35.6677 108.088C36.8613 110.099 38.1935 112.022 39.6263 113.872C41.0378 115.695 42.5547 117.435 44.1687 119.081C45.7804 120.727 47.4879 122.28 49.2807 123.727C51.0925 125.189 52.9907 126.622 55.0298 127.755C55.2903 127.9 55.5958 127.974 55.8777 128.065C56.2424 128.184 56.51 127.69 56.2459 127.432C56.0387 127.229 55.8433 127.004 55.6065 126.836C55.3625 126.663 55.1103 126.505 54.8628 126.338C54.388 126.017 53.9143 125.692 53.443 125.366C52.5312 124.733 51.5768 124.036 50.7325 123.386C48.9172 121.985 47.1872 120.473 45.5483 118.868C42.2978 115.685 39.4487 112.135 36.9892 108.31C36.2941 107.229 35.6464 106.123 35.0105 105.006C34.6932 104.449 34.39 103.884 34.0596 103.334C33.7292 102.786 33.4024 102.238 33.0803 101.684C32.9619 101.481 32.609 101.615 32.6896 101.849Z" fill="white"/>
<path d="M58.7745 130.024C59.4637 130.713 60.25 131.269 61.0398 131.835C61.8059 132.384 62.5993 132.892 63.4045 133.383C65.0339 134.375 66.7036 135.296 68.4336 136.101C71.902 137.718 75.5267 138.999 79.245 139.902C80.2811 140.153 81.3232 140.373 82.3723 140.556C82.8969 140.647 83.4238 140.733 83.9508 140.808C84.1024 140.831 84.2456 140.847 84.3996 140.833C84.5452 140.819 84.6838 140.832 84.8413 140.837C85.1148 140.844 85.3801 140.846 85.6524 140.815C86.0503 140.77 86.1344 140.265 85.7472 140.119C85.5257 140.036 85.3067 139.976 85.0769 139.919C84.9704 139.893 84.8638 139.857 84.756 139.837C84.6352 139.815 84.5275 139.757 84.4055 139.721C84.1829 139.657 83.9389 139.64 83.7104 139.602C83.4783 139.564 83.2462 139.524 83.0153 139.482C82.0893 139.316 81.1657 139.128 80.2479 138.924C78.4101 138.517 76.5913 138.018 74.8032 137.431C71.2496 136.266 67.8001 134.747 64.5259 132.94C63.5928 132.425 62.6952 131.853 61.774 131.317C60.8551 130.783 59.9788 130.181 59.0338 129.69C58.823 129.579 58.5981 129.847 58.7745 130.024Z" fill="white"/>
<path d="M67.9183 138.316C68.096 138.477 68.2629 138.586 68.482 138.686C68.7093 138.79 68.9403 138.889 69.17 138.988C69.6271 139.186 70.0865 139.369 70.5554 139.539C71.4566 139.866 72.3601 140.179 73.2766 140.461C75.131 141.032 77.0138 141.507 78.9144 141.9C82.7321 142.689 86.6327 143.121 90.5297 143.194C91.6192 143.214 92.7098 143.216 93.7992 143.173C94.8969 143.13 96.0207 143.107 97.0947 142.871C97.5755 142.766 97.4369 142.074 96.9834 142.048C96.029 141.992 95.0733 142.082 94.1177 142.104C93.1609 142.126 92.2042 142.143 91.2474 142.133C89.3207 142.113 87.3941 142.009 85.4758 141.827C81.6699 141.464 77.9043 140.755 74.2109 139.77C73.1855 139.496 72.16 139.206 71.1475 138.888C70.6407 138.728 70.1374 138.56 69.6294 138.408C69.1096 138.253 68.5874 138.024 68.0415 138.02C67.8958 138.018 67.8047 138.214 67.9183 138.316Z" fill="white"/>
<path d="M46.6253 16.7707C46.0155 17.0052 45.4874 17.4018 44.9592 17.7784C44.405 18.1739 43.8615 18.5765 43.3322 19.0064C42.2937 19.8507 41.2942 20.7412 40.3481 21.6873C38.4511 23.5855 36.7625 25.6542 35.2882 27.897C34.4676 29.1439 33.7666 30.5081 33.1603 31.871C33.0514 32.1173 33.3817 32.3269 33.5298 32.0865C34.8963 29.8568 36.38 27.7028 38.0023 25.6507C39.6388 23.5819 41.4541 21.653 43.4257 19.9004C43.9728 19.4137 44.5495 18.9614 45.0918 18.4711C45.6401 17.975 46.2843 17.5889 46.7769 17.0324C46.8728 16.927 46.784 16.7103 46.6253 16.7707Z" fill="white"/>
<path d="M136.685 131.948C136.377 132.096 136.057 132.224 135.758 132.386C135.458 132.548 135.157 132.711 134.849 132.856C134.232 133.144 133.633 133.475 133.016 133.765C131.78 134.346 130.534 134.893 129.252 135.364C126.677 136.309 124.04 137.034 121.337 137.499C120.964 137.563 120.591 137.622 120.216 137.677C119.843 137.73 119.478 137.822 119.106 137.879C118.34 137.996 117.565 138.06 116.803 138.201C116.474 138.262 116.578 138.735 116.877 138.755C117.568 138.802 118.262 138.748 118.951 138.7C119.301 138.675 119.653 138.668 120.002 138.639C120.356 138.61 120.712 138.545 121.063 138.49C122.435 138.276 123.793 137.989 125.134 137.633C127.832 136.918 130.443 135.928 132.937 134.677C133.624 134.333 134.294 133.955 134.956 133.563C135.636 133.16 136.27 132.703 136.886 132.208C137.04 132.083 136.842 131.872 136.685 131.948Z" fill="white"/>
</g>
</g>
</svg>
