<svg width="1489" height="348" viewBox="0 0 1489 348" fill="none" xmlns="http://www.w3.org/2000/svg">
<path opacity="0.2" fill-rule="evenodd" clip-rule="evenodd" d="M165.863 162.643L165.958 181.861H166.624C167.29 181.861 168.051 182.392 168.051 183.278C168.051 183.721 167.29 184.429 166.624 184.429H165.958L166.244 208.075H167.671C168.622 208.075 169.384 208.695 169.384 209.58C169.384 210.377 168.622 211.174 167.671 211.174H166.244V219.588H172.429V213.123V212.591V212.414V212.06V210.377H171.668C171.382 210.377 170.906 210.112 170.906 209.58C170.906 209.315 171.382 208.872 171.668 208.872H172.524C172.143 207.721 171.572 205.507 172.619 203.292C173.19 202.318 174.142 201.433 175.189 200.547C176.426 199.573 177.472 198.776 178.519 198.422C178.519 198.422 178.519 198.245 178.519 197.979C178.329 197.802 178.519 197.448 178.709 197.182C178.709 197.005 178.995 196.739 179.376 196.473C179.661 196.208 179.946 196.119 180.137 195.853V195.322C179.946 195.234 179.946 195.234 179.946 195.056C179.946 195.056 179.947 194.791 180.042 194.702C180.042 194.702 180.137 194.614 180.232 194.614V194.171C180.137 193.994 180.137 193.994 180.137 193.994V193.639C180.137 193.462 180.232 193.462 180.232 193.462V192.931L180.517 189.654H180.613H180.803V192.931V193.374C180.993 193.374 180.993 193.374 180.993 193.551C180.993 193.551 180.993 193.551 180.993 193.905C180.993 193.905 180.993 193.905 180.993 194.082V194.436C180.993 194.436 180.993 194.525 181.088 194.525L181.279 194.879C181.279 195.056 181.279 195.056 181.088 195.145C180.993 195.145 180.993 195.145 180.993 195.145V195.676C181.279 195.942 181.469 196.031 181.755 196.296C182.23 196.562 182.516 196.828 182.516 197.005C182.706 197.359 182.706 197.802 182.706 197.979C182.706 198.245 182.706 198.333 182.516 198.422C183.467 198.864 184.704 199.573 185.941 200.547C187.083 201.433 188.035 202.318 188.416 203.292C189.558 205.507 189.082 207.721 188.606 208.872H189.367C189.653 208.872 190.033 209.226 190.033 209.58C190.033 210.023 189.653 210.377 189.367 210.377H188.796V212.414V219.588H194.411V215.16V214.185L194.316 213.831C194.411 213.654 194.411 213.566 194.411 213.388V210.732H193.364C192.698 210.732 192.127 210.2 192.127 209.58C192.127 209.049 192.698 208.606 193.364 208.606H194.696C194.22 206.658 193.174 203.292 194.982 199.75C195.743 198.245 197.17 196.739 198.883 195.234C200.786 194.082 202.594 193.02 204.212 192.134C204.117 191.957 204.117 191.603 203.927 191.337C203.927 190.983 204.117 190.451 204.212 190.008C204.498 189.743 204.878 189.211 205.354 188.857C205.83 188.503 206.496 188.237 206.591 187.972L206.877 187.529C206.591 187.175 206.591 187.086 206.496 187.086C206.496 187.086 206.496 186.909 206.496 186.643C206.496 186.643 206.496 186.466 206.591 186.112C206.591 186.112 206.591 186.112 206.877 186.112L206.972 185.492C206.877 185.403 206.591 185.403 206.591 185.138C206.591 185.049 206.591 185.049 206.591 184.872C206.591 184.783 206.591 184.606 206.591 184.606C206.877 184.518 206.877 184.518 206.972 184.341V183.544L207.257 178.23C207.257 178.23 207.352 178.23 207.448 178.23L207.828 183.544V184.163C207.828 184.252 207.923 184.252 207.923 184.429C208.114 184.429 208.114 184.606 208.114 184.695C208.114 184.872 208.114 184.872 208.114 184.961C207.923 185.226 207.923 185.226 207.828 185.315V185.935C207.923 185.935 208.114 185.935 208.304 185.935C208.304 186.2 208.304 186.466 208.304 186.466C208.304 186.732 208.304 186.909 208.304 186.909C208.114 186.909 208.114 187.086 207.923 187.44V187.883C208.399 188.149 208.875 188.326 209.541 188.769C209.827 189.123 210.302 189.654 210.397 189.92C210.683 190.363 210.683 190.894 210.683 191.248C210.683 191.514 210.588 191.868 210.588 191.868C212.301 192.842 214.109 193.994 215.631 195.145C217.534 196.65 218.962 198.245 219.723 199.662C221.436 203.204 220.675 206.481 220.009 208.518H221.055C221.912 208.518 222.388 208.872 222.388 209.492C222.388 210.112 221.912 210.643 221.055 210.643H220.199V213.743V219.499H226.194V215.957H225.433C224.862 215.957 224.291 215.514 224.291 214.54C224.291 214.097 224.862 213.566 225.433 213.566H226.099C224.671 210.82 221.626 202.23 225.718 193.285C227.431 189.92 230.571 186.82 234.283 183.721C238.089 181.152 241.895 178.85 245.226 176.99C244.94 176.37 244.845 176.104 244.845 175.219C244.845 174.51 244.845 173.536 245.321 172.562C245.797 171.676 246.844 170.702 247.89 170.171C248.747 169.285 249.794 168.754 250.555 168.311V166.806C250.46 166.717 250.174 166.363 249.984 166.186C249.984 166.009 249.794 165.743 249.794 165.477C249.794 165.034 249.984 164.857 249.984 164.592C250.174 164.326 250.555 164.06 250.745 163.972V162.643C250.65 162.378 250.555 162.289 250.46 162.201C250.365 161.669 250.174 161.581 250.174 161.226C250.174 161.138 250.364 160.872 250.555 160.606C250.555 160.252 250.745 160.252 250.84 160.252V158.658L251.602 147.765C250.555 147.765 249.413 147.677 248.271 147.145C247.224 146.437 246.368 145.64 245.987 144.843C246.368 145.108 246.939 145.64 247.7 145.994C250.174 147.411 253.695 146.614 255.313 144.046C256.74 141.743 255.789 138.466 253.219 137.049C252.648 136.872 251.792 136.429 251.126 136.429C252.363 136.252 253.6 136.695 254.551 137.138C257.501 138.732 258.548 142.363 256.74 144.931C255.789 146.614 254.171 147.588 252.268 147.765L252.744 158.658L252.839 160.252C252.934 160.252 253.029 160.252 253.219 160.606C253.41 160.784 253.41 161.138 253.41 161.226C253.41 161.581 253.41 161.669 253.219 162.201C253.029 162.201 253.029 162.378 252.839 162.643L252.934 163.972C253.029 164.06 253.41 164.237 253.505 164.592C253.695 164.857 253.885 165.034 253.885 165.477C253.885 165.654 253.695 166.009 253.505 166.186C253.41 166.363 253.315 166.717 253.029 166.806V168.4C253.885 168.843 255.027 169.374 255.693 170.259C256.931 170.879 257.787 171.854 258.263 172.651C258.738 173.625 258.834 174.51 258.834 175.307C258.834 176.193 258.548 176.459 258.358 177.079C261.784 178.938 265.685 181.241 269.301 183.809C273.012 186.909 276.248 190.097 277.961 193.374C282.053 202.318 278.912 210.909 277.675 213.654H278.246C279.103 213.654 279.674 214.185 279.674 214.628C279.674 215.602 279.103 216.045 278.246 216.045H277.961V219.588H283.67V215.16V214.185V213.831C283.67 213.654 283.67 213.566 283.67 213.388V210.732H282.719C282.053 210.732 281.482 210.2 281.482 209.58C281.482 209.049 282.053 208.606 282.719 208.606H284.146C283.29 206.658 282.624 203.292 284.241 199.75C285.098 198.245 286.525 196.739 288.428 195.234C290.046 194.082 291.949 193.02 293.567 192.134C293.472 191.957 293.472 191.603 293.472 191.337C293.377 190.983 293.472 190.451 293.567 190.008C293.947 189.743 294.233 189.211 294.804 188.857C295.28 188.503 295.755 188.237 296.231 187.972V187.529C296.136 187.175 296.136 187.086 295.946 187.086C295.851 187.086 295.851 186.909 295.851 186.643C295.851 186.643 295.851 186.466 295.946 186.112C296.136 186.112 296.136 186.112 296.231 186.112L296.327 185.492C296.231 185.403 296.231 185.403 296.136 185.138C296.136 185.049 296.136 185.049 296.136 184.872C296.136 184.783 296.136 184.606 296.136 184.606C296.231 184.518 296.231 184.518 296.327 184.341V183.544L296.517 178.23H296.707C296.802 178.23 296.897 178.23 296.897 178.23L297.183 183.544V184.163C297.278 184.252 297.278 184.252 297.373 184.429C297.373 184.429 297.373 184.606 297.373 184.695C297.373 184.872 297.373 184.872 297.373 184.961C297.373 185.226 297.278 185.226 297.183 185.315V185.935C297.373 185.935 297.373 185.935 297.373 185.935C297.659 186.2 297.659 186.466 297.659 186.466C297.659 186.732 297.659 186.909 297.564 186.909C297.564 186.909 297.373 186.997 297.278 187.352L297.373 187.794C297.659 188.06 298.23 188.237 298.61 188.68C299.181 189.034 299.657 189.566 299.942 189.831C300.038 190.274 300.133 190.805 300.038 191.16C300.038 191.425 300.038 191.78 299.942 191.957C301.465 192.754 303.463 193.905 305.081 195.056C306.889 196.562 308.412 198.156 309.268 199.573C310.791 203.115 309.934 206.392 309.458 208.429H310.41C311.171 208.429 311.742 208.783 311.742 209.403C311.742 210.023 311.171 210.554 310.41 210.554H309.554V213.654V219.41H315.168V213.123V212.591V212.414V212.06V210.377H314.692C314.216 210.377 313.836 210.112 313.836 209.58C313.836 209.315 314.216 208.872 314.692 208.872H315.358C315.073 207.721 314.502 205.507 315.549 203.292C316.12 202.318 317.166 201.433 318.023 200.547C319.07 199.573 320.212 198.864 321.258 198.422C321.258 198.422 321.258 198.245 321.258 197.979C321.258 197.802 321.258 197.359 321.258 197.182C321.353 197.005 321.734 196.739 322.115 196.473C322.305 196.208 322.686 196.119 322.781 195.853V195.322H322.686C322.686 195.322 322.686 195.234 322.686 195.056V194.614C322.686 194.614 322.781 194.525 322.971 194.525L323.066 194.171C322.781 193.994 322.781 193.994 322.781 193.994C322.686 193.728 322.686 193.728 322.686 193.728C322.686 193.728 322.686 193.639 322.781 193.639C322.781 193.462 322.971 193.462 323.066 193.462V192.931L323.161 189.654C323.161 189.654 323.161 189.654 323.352 189.654V192.931V193.374C323.542 193.374 323.542 193.374 323.542 193.551L323.732 193.639C323.732 193.639 323.542 193.639 323.542 193.905C323.542 193.905 323.542 193.905 323.352 194.082L323.542 194.436C323.542 194.436 323.542 194.525 323.732 194.525V194.879C323.732 195.056 323.732 195.056 323.732 195.056L323.542 195.145V195.676C323.828 195.942 324.018 196.031 324.399 196.296C324.589 196.562 324.97 196.828 325.16 197.005C325.35 197.359 325.35 197.802 325.35 197.979C325.35 198.245 325.255 198.333 325.16 198.422C326.207 198.864 327.348 199.573 328.395 200.547C329.537 201.433 330.584 202.318 331.06 203.292C332.106 205.507 331.631 207.721 331.155 208.872H332.011C332.297 208.872 332.773 209.226 332.773 209.58C332.773 210.023 332.297 210.377 332.011 210.377H331.345V212.414V219.588H335.627V201.964H333.915C332.773 201.964 331.821 201.079 331.821 200.016C331.821 198.865 332.868 198.067 333.915 198.067H335.627L335.818 168.488H335.152C334.2 168.488 333.248 167.691 333.248 166.806C333.248 165.832 334.2 165.123 335.152 165.123H335.913L336.008 140.858H335.152C334.39 140.858 333.534 140.326 333.534 139.529C333.534 138.821 334.2 138.201 334.771 138.112V128.459V127.751V127.573C334.771 127.396 334.771 127.308 334.771 127.308V125.271H334.2C333.724 125.271 333.153 124.917 333.153 124.474C333.153 124.031 333.724 123.677 334.2 123.677H335.152C334.581 122.348 334.01 119.869 335.247 117.389C335.818 116.326 336.96 115.264 338.101 114.201C339.434 113.138 340.766 112.253 342.003 111.721C341.813 111.721 341.813 111.544 341.813 111.278C341.813 110.924 341.813 110.658 342.003 110.481C342.098 109.95 342.384 109.596 342.955 109.507C343.05 109.241 343.526 108.887 343.811 108.799V108.179H343.526C343.526 108.179 343.526 107.913 343.526 107.825C343.526 107.825 343.526 107.736 343.526 107.382C343.526 107.382 343.811 107.382 343.906 107.382V106.762C343.811 106.762 343.811 106.762 343.811 106.762C343.811 106.762 343.526 106.585 343.526 106.319L343.811 106.142C343.811 106.053 343.906 106.053 343.906 106.053V105.522L344.097 101.714C344.097 101.537 344.097 101.537 344.192 101.537L344.477 105.611V106.053C344.572 106.053 344.572 106.053 344.572 106.142C344.763 106.142 344.858 106.23 344.858 106.23C344.858 106.496 344.763 106.496 344.763 106.673C344.572 106.673 344.572 106.673 344.572 106.673V107.116C344.572 107.116 344.763 107.116 344.858 107.116C344.858 107.47 344.858 107.559 344.858 107.559C344.858 107.647 344.858 107.913 344.858 107.913C344.858 107.913 344.763 107.913 344.572 107.913V108.799C344.953 108.887 345.143 109.241 345.524 109.419C346.095 109.507 346.285 109.861 346.571 110.393C346.571 110.57 346.666 110.836 346.666 111.19C346.666 111.455 346.571 111.544 346.571 111.544C347.617 112.164 348.95 113.05 350.092 114.112C351.614 115.086 352.566 116.149 353.137 117.3C354.374 119.78 353.803 122.26 353.327 123.588H354.183C354.659 123.588 354.945 123.943 354.945 124.385C354.945 124.828 354.659 125.182 354.183 125.182H353.422V127.573V138.024C354.279 138.112 354.754 138.644 354.754 139.441C354.754 140.238 353.993 140.769 353.041 140.769H352.185L352.375 165.034H353.041C354.183 165.034 354.945 165.654 354.945 166.717C354.945 167.603 354.183 168.4 353.041 168.4H352.471L352.566 197.979H354.374C355.611 197.979 356.562 198.864 356.562 199.927C356.562 201.078 355.516 201.876 354.374 201.876H352.566L352.661 246.333C353.803 245.359 354.945 244.384 356.372 243.587C360.464 240.045 365.317 237.477 369.028 235.617C368.743 235.086 368.552 234.2 368.552 233.403C368.552 232.429 368.743 231.366 369.123 230.392C369.694 229.241 370.931 228.178 371.978 227.469C373.12 226.495 374.262 225.875 375.214 225.433V223.484C375.023 223.396 374.738 223.041 374.738 222.776C374.452 222.599 374.357 222.156 374.357 221.802C374.357 221.447 374.452 221.005 374.738 220.65C374.833 220.473 375.214 220.296 375.404 220.03V218.436C375.309 218.348 375.214 218.171 375.023 217.905C374.833 217.728 374.833 217.462 374.833 217.196C374.833 216.665 374.833 216.665 375.023 216.222C375.214 216.134 375.404 215.78 375.689 215.78V214.185L376.26 201.078C376.451 200.901 376.451 200.724 376.641 200.724C376.927 200.724 377.022 200.901 377.022 201.078L377.688 214.185L377.878 215.78C377.973 215.78 378.068 216.134 378.259 216.222C378.449 216.665 378.544 216.665 378.544 217.196C378.544 217.374 378.449 217.639 378.449 217.905C378.068 218.171 378.068 218.259 377.973 218.436V220.03C378.164 220.208 378.449 220.385 378.639 220.65C378.925 221.005 378.925 221.447 378.925 221.802C378.925 222.156 378.925 222.599 378.639 222.776C378.544 223.041 378.449 223.307 378.068 223.484V225.344C379.02 225.875 380.257 226.495 381.399 227.381C382.541 228.089 383.683 229.152 384.159 230.303C384.73 231.278 384.92 232.34 384.92 233.314C384.73 234.111 384.634 234.997 384.539 235.528C388.251 237.388 392.818 240.045 397.1 243.499C398.147 244.207 399.194 244.827 400.145 245.801H401.097L401.287 222.244H400.812C399.955 222.244 399.289 221.713 399.289 220.916C399.289 220.119 399.955 219.499 400.812 219.499H401.287L401.383 200.37H400.812C400.145 200.37 399.479 199.839 399.479 199.219C399.479 198.422 399.765 198.067 400.431 198.067V194.968V194.171C400.431 193.994 400.431 193.994 400.431 193.728V192.4H399.765C399.479 192.4 399.194 192.222 399.194 191.691C399.194 191.425 399.479 191.16 399.765 191.16H400.716C400.336 190.008 399.765 188.149 400.812 186.023C401.287 185.226 402.144 184.252 403.095 183.544C404.047 182.747 405.094 182.127 406.045 181.507C405.855 181.507 405.855 181.418 405.855 181.152C405.855 180.975 405.855 180.798 406.141 180.533C406.236 180.178 406.426 179.913 406.807 179.824C407.092 179.647 407.282 179.47 407.568 179.381V178.938C407.568 178.938 407.378 178.938 407.378 178.673C407.378 178.673 407.282 178.673 407.282 178.584C407.282 178.584 407.378 178.584 407.378 178.407L407.568 178.053V177.787V177.433H407.378C407.378 177.344 407.568 177.344 407.568 177.344C407.568 177.079 407.568 177.079 407.568 177.079V176.724L407.853 173.713C407.853 173.536 407.853 173.536 407.949 173.536C407.949 173.536 407.949 173.536 407.949 173.713L408.139 176.636V176.99C408.139 176.99 408.139 176.99 408.139 177.256C408.329 177.256 408.329 177.256 408.329 177.344C408.329 177.344 408.329 177.344 408.139 177.344V177.699V177.876L408.329 178.23C408.424 178.407 408.424 178.407 408.424 178.407C408.424 178.496 408.424 178.496 408.329 178.496C408.329 178.761 408.329 178.761 408.139 178.761V179.204C408.424 179.293 408.71 179.47 409.09 179.647C409.281 179.735 409.566 180.001 409.661 180.355C409.757 180.621 409.852 180.798 409.852 180.975C409.852 181.241 409.757 181.33 409.661 181.33C410.518 181.949 411.755 182.569 412.707 183.366C413.658 184.163 414.61 185.138 414.99 185.846C415.942 187.883 415.561 189.831 414.99 190.983H415.847C416.037 191.16 416.418 191.425 416.418 191.691C416.418 192.222 416.037 192.4 415.847 192.4H415.276V194.171V198.245C415.847 198.245 416.132 198.51 416.132 199.396C416.132 200.016 415.752 200.547 414.895 200.547H414.229L414.419 219.676H414.895C414.99 219.676 414.99 219.676 414.99 219.676H425.077L425.268 160.961H422.984C421.176 160.961 419.843 159.544 419.843 158.127C419.843 156.444 421.271 155.381 422.984 155.381H425.268L425.648 113.05H424.697C423.269 113.05 422.127 112.164 422.127 110.747C422.127 109.33 423.364 108.356 424.697 108.356H425.648L425.743 73.9945H424.697C423.364 73.9945 422.413 73.0204 422.413 71.692C422.413 70.8063 423.174 69.9207 424.411 69.7436V63.8986V62.7474L424.126 62.4817C424.126 62.3931 424.411 62.216 424.411 61.9503V59.2049H423.364C422.603 59.2049 422.032 58.6736 422.032 58.0537C422.032 57.5223 422.603 57.0795 423.364 57.0795H424.697C423.935 55.2197 423.174 51.5888 424.792 48.0463C425.648 46.3637 427.266 44.681 428.979 43.3526C430.787 42.1128 432.785 40.873 434.403 40.1645C434.308 39.8988 434.308 39.5446 434.308 39.1018C434.213 38.8361 434.308 38.3933 434.403 37.9505C434.688 37.5077 435.164 37.0649 435.64 36.5335C436.116 36.2678 436.592 36.0022 437.067 35.6479V35.028C437.067 35.028 436.972 34.9394 436.782 34.9394C436.687 34.7623 436.687 34.5852 436.687 34.3195C436.687 34.3195 436.687 34.1424 436.782 33.8767C436.972 33.7881 437.067 33.7881 437.067 33.6996L437.353 32.9911C437.067 32.814 437.067 32.814 437.067 32.7254C436.972 32.7254 436.972 32.6369 436.972 32.6369C436.972 32.1941 436.972 32.1941 437.067 32.1055C437.067 32.1055 437.067 32.1055 437.353 31.8398V31.2199L437.543 25.7292L437.638 25.6406L437.829 25.7292L438.019 31.2199L438.209 31.7513C438.209 32.0169 438.209 32.0169 438.304 32.0169C438.304 32.1055 438.4 32.1055 438.4 32.5483C438.4 32.5483 438.4 32.7254 438.304 32.7254C438.209 32.814 438.209 32.814 438.209 32.9911V33.6996C438.304 33.7881 438.4 33.7881 438.4 33.8767C438.4 34.0538 438.685 34.2309 438.685 34.2309C438.685 34.4966 438.4 34.6737 438.4 34.8509C438.4 34.8509 438.304 34.9394 438.209 34.9394V35.6479C438.685 36.0022 439.161 36.2678 439.637 36.5335C440.208 37.0649 440.588 37.5077 440.778 37.9505C441.064 38.3933 441.064 38.8361 441.064 39.1018C441.064 39.456 441.064 39.8102 440.969 40.1645C442.491 40.7844 444.299 42.0242 446.203 43.3526C448.201 44.681 449.533 46.3637 450.485 48.0463C452.198 51.5888 451.341 55.2197 450.58 57.0795H451.627C452.388 57.0795 452.864 57.5223 452.864 58.0537C452.864 58.6736 452.388 59.2049 451.627 59.2049H450.675V62.4817V69.5665C451.722 69.8322 452.388 70.6292 452.388 71.5148C452.388 72.8432 451.341 73.8174 450.294 73.8174H448.962L449.153 108.179H450.294C451.722 108.179 452.864 109.241 452.864 110.57C452.864 111.987 451.627 112.872 450.294 112.872H449.153L449.438 155.204H452.103C452.578 155.204 453.149 155.293 453.625 155.559C458.764 148.828 465.425 142.717 472.942 137.049C483.22 128.99 494.734 122.26 504.25 117.3C503.584 115.972 503.393 114.112 503.298 112.164C503.013 109.95 503.489 107.205 504.631 104.548C505.963 101.802 508.818 99.2342 511.577 97.0202C514.337 95.1604 517.477 93.5663 519.666 92.3265L519.951 87.7214C519.19 87.2786 518.714 86.8357 518.334 86.1273C517.858 85.4188 517.762 84.5332 517.762 83.559C517.762 82.6734 517.858 81.6993 518.334 80.9908C519 80.3709 519.571 79.6624 520.237 79.2196L520.522 75.3229C520.046 74.8801 519.666 74.5259 519.285 74.1716C519 73.286 518.714 72.8432 518.714 72.0462C518.714 71.2491 519.095 70.4521 519.475 70.0093C519.761 69.3894 520.237 68.9466 520.903 68.6809L520.998 64.2529L522.425 32.9025C519.38 32.9025 516.145 32.1055 513.195 30.6885C510.15 28.8288 507.58 26.5262 506.248 23.6923C507.485 25.1978 509.008 26.6148 511.006 27.5004C518.429 31.6627 528.325 29.2716 532.703 22.1868C537.175 15.0134 534.606 6.06878 526.898 1.81789C524.995 1.02085 523.091 0.223808 520.903 0.0466876C524.138 -0.218993 527.659 0.666597 530.799 2.26068C539.364 6.77726 542.123 16.7846 537.175 24.5779C534.415 29.183 529.467 32.0169 524.138 32.6369L525.851 64.0757L525.946 68.5038C526.517 68.7695 526.898 69.2123 527.278 69.8322C527.754 70.275 527.849 71.072 527.849 71.8691C527.849 72.6661 527.754 73.1089 527.374 73.9945C527.183 74.3488 526.803 74.703 526.327 75.1458L526.422 79.0424C527.183 79.3967 527.754 80.1052 528.23 80.8137C528.706 81.6107 529.087 82.5849 529.087 83.3819C529.087 84.4446 528.706 85.2417 528.325 85.9502C528.04 86.5701 527.374 87.0129 526.898 87.5442L527.183 92.1494C529.372 93.3892 532.322 94.9833 535.177 96.8431C538.032 98.9685 540.791 101.625 542.028 104.371C543.36 107.027 543.646 109.861 543.456 111.987C543.456 113.935 542.98 115.706 542.504 117.123C552.115 122.083 563.629 128.725 574.002 136.872C584.469 144.931 594.08 154.496 598.743 164.415C609.401 187.086 603.121 209.403 599.124 219.499H611.685V246.953C612.922 246.067 613.874 244.916 615.206 243.942C618.441 241.551 622.057 239.514 625.102 237.92C625.007 237.388 624.722 237.034 624.722 236.148C624.722 235.528 624.722 234.554 625.388 234.023C625.578 232.96 626.53 232.252 627.386 231.72C628.243 230.923 629.194 230.48 629.86 230.126V228.709C629.67 228.621 629.575 228.267 629.385 228.178C629.385 227.735 629.194 227.735 629.194 227.469C629.194 227.027 629.385 227.027 629.575 226.584C629.575 226.584 629.86 226.141 630.051 225.964V224.813C629.956 224.724 629.86 224.37 629.67 224.37C629.575 224.281 629.575 223.927 629.575 223.838C629.575 223.573 629.575 223.307 629.86 223.307C629.86 222.864 630.051 222.864 630.241 222.864V221.359L630.812 211.174C630.812 211.174 630.907 210.997 631.002 210.997C631.097 210.997 631.288 211.174 631.288 211.174L631.764 221.359L631.859 222.776C631.954 222.776 632.144 222.776 632.239 223.219C632.43 223.219 632.43 223.484 632.43 223.75C632.43 223.838 632.43 224.193 632.335 224.281C632.239 224.281 632.144 224.547 631.859 224.724L631.954 225.875C632.239 225.964 632.43 226.407 632.62 226.495C632.715 226.938 632.81 226.938 632.81 227.381C632.81 227.558 632.715 227.647 632.62 228.089C632.43 228.178 632.335 228.532 632.144 228.621V230.126C632.715 230.48 633.667 230.923 634.523 231.72C635.57 232.34 636.331 233.049 636.712 234.023C637.092 234.643 637.283 235.528 637.283 236.148C637.093 236.945 636.997 237.388 636.902 237.92C637.759 238.362 638.901 238.805 639.757 239.514L639.852 219.588H639.376C638.615 219.588 637.854 219.056 637.854 218.259C637.854 217.639 638.615 216.754 639.376 216.754H639.852L640.042 197.89H639.376C638.71 197.89 638.139 197.27 638.139 196.65C638.139 196.031 638.425 195.588 639.091 195.234V192.222V191.691V191.514V191.248V189.831H638.425C638.234 189.831 637.854 189.389 637.854 188.946C637.854 188.68 638.234 188.591 638.425 188.591H639.281C638.901 187.617 638.425 185.492 639.376 183.455C639.852 182.481 640.899 181.595 641.755 180.887C642.802 180.09 643.754 179.47 644.8 179.027C644.61 178.938 644.61 178.673 644.61 178.496C644.61 178.496 644.61 177.964 644.8 177.787C644.8 177.433 645.181 177.344 645.371 177.079C645.657 176.902 645.942 176.724 646.228 176.459V176.282C646.228 176.193 646.037 176.193 645.942 176.193C645.942 176.193 645.942 175.927 645.942 175.839C645.942 175.839 645.942 175.75 646.037 175.75C646.037 175.485 646.228 175.485 646.228 175.485V175.042V174.776C646.037 174.776 646.037 174.776 646.037 174.688C646.037 174.688 646.037 174.51 646.228 174.51C646.228 174.333 646.228 174.333 646.323 174.333V173.979L646.418 170.968H646.513C646.513 170.879 646.513 170.968 646.513 170.968L646.704 173.979V174.333C646.799 174.333 646.894 174.333 646.894 174.51V174.688C646.894 174.776 646.894 174.776 646.894 174.776L646.799 175.042V175.307C646.894 175.307 646.894 175.307 647.084 175.573V175.662C647.084 175.75 647.084 176.016 647.084 176.016C646.894 176.016 646.894 176.016 646.799 176.105L646.894 176.282C647.084 176.547 647.275 176.724 647.655 176.902C647.846 177.167 648.226 177.256 648.321 177.61C648.321 177.787 648.321 178.318 648.321 178.318C648.321 178.407 648.321 178.761 648.321 178.761C649.178 179.293 650.32 179.913 651.366 180.621C652.318 181.33 653.365 182.215 653.555 183.189C654.507 185.226 654.126 187.352 653.745 188.326H654.412C654.697 188.326 654.982 188.414 654.982 188.68C654.982 189.123 654.697 189.566 654.412 189.566H653.841V191.248V195.056C654.412 195.411 654.887 195.853 654.887 196.473C654.887 197.093 654.126 197.713 653.46 197.713H652.889L653.079 216.842H653.555C654.411 216.842 655.078 217.728 655.078 218.348C655.078 219.145 654.411 219.676 653.555 219.676H653.079L653.174 232.606C655.268 229.152 658.884 225.61 662.786 222.864C667.068 219.41 671.921 216.577 675.918 214.363C675.822 213.92 675.632 213.123 675.537 212.503C675.537 211.351 675.632 210.289 676.203 209.137C676.774 207.898 677.821 206.746 679.058 205.949C680.295 205.152 681.532 204.355 682.293 204.09L682.579 202.141C682.293 202.141 682.103 201.787 681.817 201.344C681.722 201.167 681.532 200.813 681.532 200.547C681.532 200.104 681.722 199.573 681.913 199.307C682.103 199.042 682.293 198.776 682.674 198.599L682.769 197.005C682.579 196.916 682.293 196.65 682.293 196.385C682.198 196.296 682.103 196.031 682.103 195.499C682.103 195.411 682.198 194.968 682.293 194.791C682.579 194.436 682.674 194.259 682.769 193.905L683.055 192.4L683.625 178.761C683.625 178.673 683.816 178.673 684.006 178.673C684.101 178.673 684.387 178.673 684.387 178.761L684.958 192.4L685.053 193.905C685.338 194.171 685.529 194.436 685.814 194.791C685.814 194.968 685.909 195.411 685.909 195.499C685.909 195.942 685.814 196.296 685.814 196.385C685.529 196.65 685.433 196.916 685.243 197.005L685.338 198.599C685.719 198.687 685.814 199.042 686.1 199.307C686.29 199.573 686.385 200.016 686.385 200.547C686.385 200.813 686.29 201.167 686.1 201.344C685.909 201.787 685.814 202.141 685.529 202.141V204.09C686.575 204.444 687.622 205.241 688.859 205.949C690.191 206.746 691.238 207.898 691.809 209.137C692.285 210.2 692.38 211.174 692.38 212.326C692.38 213.034 692.095 213.831 691.999 214.185C695.52 216.134 699.898 218.613 703.894 221.713L704.085 184.429H702.657C700.469 184.429 698.661 182.747 698.661 180.621C698.661 178.407 700.469 176.813 702.657 176.813H704.085L704.465 124.385H702.657C700.754 124.385 699.136 122.703 699.136 121.02C699.136 119.514 700.374 118.098 701.991 117.655V97.0202V95.5146L701.896 95.1604C701.896 94.8062 702.086 94.7176 702.086 94.2748V90.201H700.469C699.422 90.201 698.566 89.3154 698.566 88.4298C698.566 87.3671 699.422 86.6586 700.469 86.6586H702.467C701.42 83.9133 700.278 78.5111 702.848 73.1089C704.085 70.4521 706.654 68.1495 709.319 66.0241C711.888 63.9872 714.933 62.0389 717.407 60.8876C717.312 60.4448 717.122 59.9134 717.026 59.5592C717.026 59.1164 717.122 58.2308 717.502 57.5223C717.883 56.9909 718.644 56.1053 719.31 55.6625C720.071 55.2197 720.928 54.7769 721.404 54.2456V53.2714C721.309 53.0057 721.118 53.0057 721.023 52.8286C720.928 52.5629 720.928 52.4744 720.928 52.1201C720.928 52.1201 720.928 51.5888 721.023 51.5002C721.118 51.4116 721.404 51.0574 721.499 51.0574L721.689 49.9061C721.499 49.8176 721.404 49.8176 721.309 49.5519C721.118 49.4633 721.118 49.3747 721.118 49.1976C721.118 48.9319 721.118 48.8434 721.404 48.4892C721.404 48.4006 721.499 48.312 721.689 48.312L721.784 47.2493L722.07 38.7475C722.07 38.7475 722.26 38.659 722.355 38.659C722.451 38.659 722.45 38.7475 722.45 38.7475L722.926 47.2493V48.312C723.212 48.312 723.212 48.4006 723.402 48.4892C723.592 48.8434 723.592 48.9319 723.592 49.1976C723.592 49.3747 723.592 49.3748 723.402 49.5519C723.402 49.8176 723.212 49.8176 723.021 49.9061L723.212 51.0574C723.402 51.0574 723.592 51.4116 723.688 51.5002L723.783 52.0316C723.783 52.4744 723.783 52.5629 723.688 52.7401C723.592 52.9172 723.592 52.9172 723.212 53.1828L723.402 54.2456C723.973 54.7769 724.734 55.2197 725.4 55.6625C726.162 56.0168 726.828 56.9024 727.208 57.5223C727.494 58.2308 727.494 59.1164 727.494 59.5592C727.494 59.8249 727.494 60.3562 727.304 60.8876C729.778 62.0389 732.728 63.9872 735.392 66.0241C738.152 68.1495 740.531 70.4521 741.863 73.1089C744.337 78.5996 743.1 84.0018 742.149 86.6586H743.766C744.908 86.6586 745.669 87.3671 745.669 88.4298C745.669 89.3154 744.908 90.201 743.766 90.201H742.339V95.1604V117.743C743.957 118.098 745.099 119.603 745.099 121.109C745.099 122.88 743.481 124.474 741.482 124.474H739.674L740.055 176.902H741.482C743.671 176.902 745.479 178.496 745.479 180.71C745.479 182.835 743.671 184.518 741.482 184.518H740.15L740.341 249.078H744.432C746.811 249.078 749 250.938 749 253.329C749 255.543 746.906 257.669 744.432 257.669H740.531L741.007 348H703.133H611.495H413.277H351.043H152.731H-1.99224e-06V268.119H7.13685C5.99493 264.399 5.13857 258.82 7.99336 252.798C9.51591 249.787 12.2756 246.864 15.7965 244.207C18.9368 241.816 22.5527 239.514 25.6929 237.92C25.5026 237.654 25.3123 237.034 25.3123 236.414C25.3123 235.617 25.3124 234.997 25.7882 234.111C26.3592 233.226 27.2155 232.34 27.8816 231.72C28.8332 230.923 29.8801 230.569 30.3559 230.126L30.5461 228.709C30.3558 228.621 30.1655 228.532 30.0704 228.266C29.9752 228.089 29.88 227.735 29.88 227.558C29.88 227.115 29.9752 227.027 30.0704 226.584C30.1655 226.584 30.3557 226.407 30.6412 226.141V224.901C30.546 224.813 30.3559 224.636 30.3559 224.37C30.3559 224.281 30.1655 223.927 30.1655 223.838C30.1655 223.484 30.3559 223.396 30.3559 223.219C30.451 223.041 30.6412 222.776 30.9267 222.776V221.359L31.4977 211.174C31.4977 210.997 31.4978 210.997 31.6881 210.997C31.7833 210.997 31.8783 210.997 31.8783 211.174L32.3542 221.359L32.5444 222.776C32.7348 222.776 32.8299 223.041 32.9251 223.219C32.9251 223.307 33.1154 223.484 33.1154 223.838C33.1154 223.927 32.9251 224.193 32.9251 224.37C32.8299 224.636 32.7347 224.813 32.6395 224.901L32.7348 226.052C32.83 226.318 33.1154 226.495 33.2106 226.495C33.3057 226.938 33.401 226.938 33.401 227.469C33.401 227.647 33.3058 228.001 33.3058 228.178C33.1155 228.444 32.9251 228.532 32.8299 228.621V230.126C33.6864 230.569 34.5429 230.923 35.3042 231.72C36.2558 232.429 37.1121 233.226 37.4927 234.111C37.7782 234.997 37.9686 235.617 37.9686 236.414C37.7783 236.945 37.7782 237.565 37.5878 237.92C40.4426 239.602 44.1539 241.816 47.4844 244.207C50.815 246.864 53.765 249.787 55.2876 252.798C58.0472 258.82 57.1908 264.399 56.2392 268.119H60.1408L60.2359 230.923H58.4279C57.1909 230.923 56.4294 230.126 56.4294 229.064C56.4294 227.912 57.286 226.938 58.4279 226.938H60.2359L60.4263 197.359H59.9504C58.9036 197.359 58.0471 196.65 58.0471 195.676C58.0471 194.614 58.9036 193.905 59.9504 193.905H60.4263L60.8069 169.728H59.9504C58.9988 169.728 58.2375 169.285 58.2375 168.311C58.2375 167.691 58.9036 167.071 59.5698 166.983V157.507V156.71L59.4747 156.533C59.5698 156.356 59.5698 156.178 59.5698 156.09V154.23H58.9037C58.3327 154.23 57.952 154.053 57.952 153.433C57.952 153.079 58.3327 152.547 58.9037 152.547H59.8553C59.3795 151.219 58.7133 148.828 59.9504 146.348C60.4262 145.02 61.6633 143.957 62.9003 143.16C64.0422 142.186 65.3744 141.3 66.6115 140.68C66.5163 140.592 66.5164 140.415 66.5164 140.149C66.5164 139.972 66.5163 139.618 66.6115 139.441C66.897 139.175 67.0874 138.732 67.468 138.466C67.8487 138.289 68.3245 138.024 68.4196 137.846V137.315C68.4196 137.138 68.4195 137.138 68.3243 137.049V136.872C68.3243 136.872 68.3243 136.695 68.3243 136.341C68.4195 136.341 68.4196 136.164 68.4196 136.164L68.5147 135.81C68.4196 135.81 68.4196 135.81 68.4196 135.721C68.4196 135.721 68.4196 135.544 68.4196 135.455V135.19C68.4196 135.19 68.4196 135.101 68.5147 135.101V134.393L68.7051 130.85C68.7051 130.496 68.8954 130.496 68.8954 130.496C68.8954 130.496 68.9906 130.496 68.9906 130.85L69.276 134.393V135.101C69.3711 135.101 69.3712 135.101 69.3712 135.101C69.4664 135.19 69.4664 135.367 69.4664 135.367C69.4664 135.455 69.4664 135.632 69.3712 135.632C69.3712 135.721 69.3711 135.721 69.276 135.721L69.3712 136.252C69.3712 136.252 69.4664 136.429 69.6568 136.429C69.6568 136.695 69.6568 136.872 69.6568 136.872V137.049C69.4664 137.049 69.3712 137.049 69.3712 137.315V137.846C69.6567 138.024 69.8471 138.289 70.3229 138.466C70.7035 138.644 71.0841 139.086 71.0841 139.441C71.2744 139.618 71.2743 139.972 71.2743 140.149C71.2743 140.415 71.2743 140.592 71.2743 140.68C72.4162 141.3 73.7485 142.274 75.0808 143.16C76.2227 143.957 77.3645 145.02 77.8403 146.348C79.1726 148.739 78.4114 151.219 77.9356 152.547H78.887C79.5532 152.547 79.7436 152.99 79.7436 153.433C79.7436 153.964 79.5532 154.23 78.887 154.23H78.2209V156.444V166.983C78.8871 167.071 79.5532 167.603 79.5532 168.311C79.5532 169.285 78.6968 169.728 77.7452 169.728H76.984L77.0791 193.905H77.6501C78.6969 193.905 79.6485 194.614 79.6485 195.676C79.6485 196.562 78.6969 197.359 77.6501 197.359H76.984L77.2695 226.938H79.0774C80.3145 226.938 81.0758 227.912 81.0758 229.064C81.0758 230.038 80.2194 230.923 79.0774 230.923H77.2695L77.3646 268.119H83.4547V262.097H82.5984C81.742 262.097 80.9807 261.565 80.9807 260.857C80.9807 259.971 81.742 259.263 82.5984 259.263H83.4547C81.837 255.897 77.8404 245.093 83.0741 234.111C85.0725 229.772 89.1644 225.521 93.8272 222.156C98.3949 218.702 103.533 215.602 107.625 213.477C107.34 212.768 107.245 211.971 107.245 211.351C106.959 210.2 107.245 209.137 107.72 207.986C108.387 206.658 109.528 205.595 110.766 204.709C112.003 203.912 113.335 203.292 114.287 202.673L114.382 200.547C114.001 200.459 113.811 200.281 113.62 199.927C113.525 199.573 113.335 199.307 113.335 198.776C113.335 198.333 113.525 198.156 113.811 197.713C113.811 197.359 114.096 197.182 114.667 197.093V195.234C114.382 195.145 114.286 194.968 114.096 194.702C114.001 194.525 113.811 194.171 113.811 193.639C113.811 193.551 114.001 193.285 114.096 192.842C114.382 192.577 114.382 192.4 114.857 192.4V190.451L115.523 176.37C115.523 176.37 115.714 176.193 115.809 176.193C116.094 176.193 116.19 176.282 116.19 176.37L116.856 190.451V192.4C117.236 192.4 117.522 192.577 117.522 192.842C117.902 193.197 117.903 193.551 117.903 193.639C117.903 194.082 117.902 194.525 117.522 194.702C117.522 194.968 117.427 195.145 117.236 195.234V197.093C117.522 197.27 117.903 197.359 117.998 197.802C118.283 198.245 118.378 198.422 118.378 198.865C118.378 199.396 118.283 199.573 118.093 200.016C117.902 200.37 117.617 200.547 117.522 200.636V202.673C118.569 203.292 119.711 203.912 121.043 204.709C122.375 205.595 123.422 206.658 123.993 207.986C124.469 209.137 124.754 210.2 124.754 211.351C124.468 212.06 124.469 212.768 124.183 213.477C128.37 215.514 133.318 218.702 137.981 222.156C142.549 225.521 146.641 229.772 148.639 234.111C153.778 245.182 149.781 255.897 148.354 259.263H149.115C150.066 259.263 150.923 259.971 150.923 260.857C150.923 261.565 150.066 262.097 149.115 262.097H148.829V268.119H152.731V236.768H152.54L152.731 221.005V219.588L152.826 211.174H151.304C150.257 211.174 149.495 210.377 149.495 209.58C149.495 208.695 150.257 208.075 151.304 208.075H152.826L152.921 184.429H152.35C151.494 184.429 150.923 183.721 150.923 183.278C150.923 182.392 151.494 181.861 152.35 181.861H152.921V162.643H152.35C151.589 162.643 151.018 162.201 151.018 161.492C151.018 160.872 151.494 160.252 151.97 160.252V157.153V156.533V156.356C151.97 156.178 151.97 156.178 151.97 156.09V154.584H151.494C151.208 154.584 150.923 154.23 150.923 154.053C150.923 153.61 151.208 153.256 151.494 153.256H152.255C151.97 152.193 151.494 150.245 152.35 148.385C152.826 147.322 153.778 146.437 154.729 145.905C155.871 144.931 156.823 144.311 157.774 143.869C157.679 143.869 157.679 143.603 157.679 143.426C157.679 143.337 157.679 143.072 157.774 142.806C157.869 142.452 158.155 142.274 158.345 142.009C158.726 141.832 158.916 141.832 159.202 141.655V141.035C159.107 141.035 159.107 141.035 159.107 140.769C159.107 140.68 159.107 140.503 159.107 140.503L159.202 140.326L159.297 140.06C159.202 139.883 159.202 139.883 159.202 139.883H159.107C159.107 139.706 159.107 139.706 159.107 139.706C159.107 139.618 159.107 139.618 159.202 139.529C159.202 139.529 159.202 139.529 159.297 139.352V138.909L159.487 135.81H159.582H159.678L159.773 138.909V139.175C159.963 139.352 159.963 139.352 159.963 139.352C159.963 139.352 160.058 139.352 160.058 139.529C160.058 139.529 159.963 139.529 159.963 139.706C159.963 139.706 159.963 139.706 159.963 139.883V140.149C159.963 140.149 159.963 140.326 160.058 140.326C160.058 140.326 160.058 140.503 160.058 140.592C160.058 140.858 159.963 140.858 159.963 140.858V141.566C160.153 141.655 160.534 141.743 160.629 141.92C161.01 142.186 161.2 142.363 161.39 142.717C161.39 142.806 161.39 143.249 161.39 143.337C161.39 143.514 161.39 143.78 161.295 143.78C162.247 144.223 163.294 144.931 164.15 145.817C165.387 146.348 166.148 147.234 166.624 148.297C167.576 150.156 167.1 152.105 166.624 153.167H167.29C167.671 153.167 168.051 153.522 168.051 153.964C168.051 154.142 167.671 154.496 167.29 154.496H166.91V156.267V160.164C167.29 160.164 167.671 160.695 167.671 161.403C167.671 162.112 167.195 162.555 166.529 162.555H165.863V162.643ZM653.555 195.322H651.462V193.02C651.462 193.02 651.462 192.931 651.747 192.842C651.842 192.488 651.747 192.4 651.747 192.222C651.271 190.983 652.794 190.806 653.555 190.274C654.031 190.717 653.936 191.425 653.46 192.222C653.46 192.4 653.46 192.488 653.555 192.842C653.65 192.842 653.65 193.02 653.65 193.02V195.322H653.555ZM648.987 195.322H643.944V193.02C643.944 193.02 643.944 192.931 644.229 192.842C644.515 192.488 644.229 192.4 644.229 192.222C643.754 190.628 646.228 190.806 646.418 189.831C646.799 190.806 649.368 190.717 648.702 192.222C648.607 192.4 648.512 192.488 648.702 192.842C648.892 192.842 648.892 193.02 648.892 193.02V195.322H648.987ZM641.565 195.322H639.471V193.02C639.471 193.02 639.471 192.931 639.757 192.842C639.852 192.488 639.757 192.4 639.757 192.222C639.376 191.425 639.281 190.628 639.757 190.274C640.518 190.806 641.946 191.071 641.47 192.222C641.47 192.4 641.47 192.488 641.565 192.842C641.755 192.842 641.66 193.02 641.66 193.02V195.322H641.565ZM414.895 197.979H412.897V195.765C412.897 195.765 412.802 195.588 412.897 195.234C413.182 195.234 413.087 195.145 412.897 194.702C412.611 193.639 413.944 193.374 414.8 192.842C415.181 193.285 415.085 193.905 414.8 194.702C414.61 195.145 414.61 195.234 414.8 195.234C414.99 195.588 414.99 195.765 414.99 195.765V197.979H414.895ZM410.232 197.979H405.474V195.765C405.474 195.765 405.474 195.588 405.474 195.234C405.76 195.234 405.76 195.145 405.665 194.702C405.094 193.374 407.663 193.374 407.853 192.4C408.139 193.374 410.518 193.374 410.137 194.702C409.947 195.145 409.947 195.234 410.137 195.234C410.328 195.588 410.137 195.765 410.137 195.765V197.979H410.232ZM402.905 197.979H400.812V195.765C400.812 195.765 400.812 195.588 400.907 195.234C401.097 195.234 401.097 195.145 400.907 194.702C400.526 193.994 400.431 193.374 400.907 192.842C401.668 193.285 403.095 193.551 402.715 194.702C402.715 195.145 402.524 195.234 402.715 195.234C403.095 195.588 403 195.765 403 195.765V197.979H402.905ZM315.263 219.588H317.547V214.274C317.547 214.274 317.642 214.008 317.357 213.831C317.262 213.565 317.262 213.388 317.357 213.034C318.023 211.883 316.215 211.617 315.358 210.997C314.883 211.44 314.978 212.06 315.358 213.034C315.454 213.388 315.454 213.477 315.358 213.831C315.168 213.92 315.168 214.274 315.168 214.274V219.588H315.263ZM320.402 219.588H325.826V214.274C325.826 214.274 325.826 214.008 325.731 213.831C325.54 213.565 325.636 213.388 325.731 213.034C326.207 211.351 323.447 211.351 323.161 210.377C322.781 211.44 320.116 211.44 320.783 213.034C320.878 213.388 320.973 213.477 320.783 213.831C320.497 213.92 320.497 214.274 320.497 214.274V219.588H320.402ZM328.776 219.588H330.965V214.274C330.965 214.274 331.06 214.008 330.679 213.831C330.584 213.565 330.679 213.388 330.679 213.034C331.06 212.06 331.155 211.351 330.679 210.997C329.823 211.617 328.395 211.971 328.776 213.034C328.776 213.388 328.871 213.477 328.681 213.831C328.681 213.92 328.681 214.274 328.681 214.274V219.588H328.776ZM172.619 219.588H174.998V214.274C174.998 214.274 174.998 214.008 174.808 213.831C174.618 213.565 174.713 213.388 174.808 213.034C175.284 211.883 173.761 211.617 172.81 210.997C172.334 211.44 172.429 212.06 172.81 213.034C172.81 213.388 172.905 213.477 172.714 213.831C172.524 213.92 172.524 214.274 172.524 214.274V219.588H172.619ZM177.853 219.588H183.277V214.274C183.277 214.274 183.277 214.008 183.182 213.831C182.896 213.565 182.897 213.388 182.992 213.034C183.753 211.351 180.898 211.351 180.708 210.377C180.232 211.44 177.568 211.44 178.138 213.034C178.138 213.388 178.424 213.477 178.138 213.831C177.948 213.92 177.948 214.274 177.948 214.274V219.588H177.853ZM186.037 219.588H188.416V214.274C188.416 214.274 188.416 214.008 188.225 213.831C188.035 213.565 188.035 213.388 188.225 213.034C188.416 212.06 188.796 211.351 188.225 210.997C187.274 211.617 185.846 211.971 186.227 213.034C186.417 213.388 186.417 213.477 186.227 213.831C186.037 213.92 186.037 214.274 186.037 214.274V219.588ZM741.482 117.655H735.773V99.5884C735.773 99.5884 735.487 99.0571 736.153 98.5257C736.629 97.9943 736.439 97.3744 736.153 96.8431C734.916 93.832 738.818 93.2121 741.102 91.7066C742.339 92.9464 741.863 94.7176 741.102 96.8431C740.816 97.3744 740.436 97.9943 741.102 98.5257C741.578 99.0571 741.482 99.5884 741.482 99.5884V117.655V117.655ZM728.921 117.655H715.504V99.5884C715.504 99.5884 715.314 99.0571 715.885 98.5257C716.456 97.9943 716.265 97.3744 716.075 96.8431C714.362 92.9464 721.404 93.1235 722.165 90.201C722.831 93.1235 729.778 92.9464 728.35 96.8431C727.97 97.3744 727.779 97.9943 728.35 98.5257C728.921 99.0571 728.826 99.5884 728.826 99.5884V117.655H728.921ZM708.748 117.655H702.752V99.5884C702.752 99.5884 702.657 99.0571 703.133 98.5257C703.799 97.9943 703.419 97.3744 703.228 96.8431C702.372 94.7176 701.991 92.9464 703.133 91.7066C705.322 93.3006 709.223 93.7434 708.081 96.8431C707.891 97.3744 707.606 97.9943 708.367 98.5257C708.748 99.0571 708.748 99.5884 708.748 99.5884V117.655V117.655ZM77.5548 166.806H75.0808V158.57C75.0808 158.57 74.9856 158.481 75.1759 158.038C75.271 157.861 75.271 157.595 75.1759 157.33C74.7001 155.824 76.5081 155.558 77.5548 155.116C77.9355 155.47 77.8403 156.267 77.5548 157.33C77.2693 157.507 77.2693 157.773 77.5548 158.038C77.65 158.392 77.5548 158.57 77.5548 158.57V166.806ZM71.9404 166.806H65.7552V158.57C65.7552 158.57 65.7551 158.481 65.9454 158.038C66.2309 157.861 66.1357 157.595 65.9454 157.33C65.3744 155.47 68.4196 155.559 68.8954 154.23C69.276 155.559 72.4162 155.47 71.5598 157.33C71.5598 157.507 71.4647 157.773 71.7502 158.038C71.9405 158.392 71.9404 158.57 71.9404 158.57V166.806ZM62.5197 166.806H59.9504V158.57C59.9504 158.57 59.8552 158.481 60.2359 158.038C60.331 157.861 60.331 157.595 60.2359 157.33C59.8552 156.178 59.5698 155.47 60.2359 155.116C61.0923 155.647 62.9003 155.913 62.2342 157.33C62.2342 157.507 62.1391 157.773 62.2342 158.038C62.6149 158.392 62.5197 158.57 62.5197 158.57V166.806ZM284.241 219.588H288.048V216.665C288.048 216.665 288.048 216.488 287.667 216.134C287.572 215.602 287.572 215.337 287.667 215.071C288.428 213.123 285.859 212.768 284.622 211.971C283.861 212.591 284.146 213.743 284.622 215.071C284.622 215.337 284.907 215.602 284.527 216.134C284.146 216.488 284.241 216.665 284.241 216.665V219.588V219.588ZM292.33 219.588H300.894V216.665C300.894 216.665 300.894 216.488 300.513 216.134C300.228 215.602 300.323 215.337 300.513 215.071C301.56 212.591 297.088 212.591 296.612 210.82C296.136 212.591 291.664 212.591 292.71 215.071C292.901 215.337 292.996 215.602 292.615 216.134C292.235 216.488 292.33 216.665 292.33 216.665V219.588V219.588ZM305.081 219.588H308.792V216.665C308.792 216.665 308.792 216.488 308.412 216.134C308.221 215.602 308.317 215.337 308.412 215.071C309.078 213.654 309.268 212.591 308.412 211.971C307.079 212.768 304.7 213.123 305.557 215.071C305.652 215.337 305.938 215.602 305.272 216.134C305.081 216.488 305.081 216.665 305.081 216.665V219.588ZM194.887 219.588H198.502V216.665C198.502 216.665 198.693 216.488 198.312 216.134C198.027 215.602 198.122 215.337 198.312 215.071C198.978 213.123 196.504 212.768 195.077 211.971C194.411 212.591 194.696 213.743 195.077 215.071C195.362 215.337 195.457 215.602 195.077 216.134C194.886 216.488 194.887 216.665 194.887 216.665V219.588V219.588ZM202.88 219.588H211.349V216.665C211.349 216.665 211.444 216.488 211.254 216.134C210.683 215.602 210.968 215.337 211.064 215.071C212.11 212.591 207.733 212.591 207.257 210.82C206.781 212.68 202.309 212.68 203.165 215.071C203.356 215.337 203.546 215.602 203.165 216.134C202.88 216.488 202.88 216.665 202.88 216.665V219.588ZM215.822 219.588H219.438V216.665C219.438 216.665 219.438 216.488 219.343 216.134C218.772 215.602 218.962 215.337 219.057 215.071C219.533 213.654 219.914 212.591 219.057 211.971C217.725 212.768 215.346 213.123 216.107 215.071C216.297 215.337 216.392 215.602 216.012 216.134C215.631 216.488 215.822 216.665 215.822 216.665V219.588ZM353.041 137.846H350.377V129.433C350.377 129.433 350.377 129.345 350.567 128.902C350.758 128.725 350.567 128.636 350.567 128.193C350.092 126.776 351.995 126.599 352.756 125.979C353.327 126.511 353.137 127.308 352.756 128.193C352.566 128.636 352.566 128.725 352.756 128.902C353.137 129.256 353.041 129.433 353.041 129.433V137.846ZM347.237 137.846H341.051V129.433C341.051 129.433 341.051 129.345 341.337 128.902C341.432 128.725 341.337 128.636 341.337 128.193C340.766 126.422 343.811 126.599 344.097 125.182C344.477 126.599 347.617 126.422 346.951 128.193C346.951 128.636 346.761 128.725 347.046 128.902C347.237 129.256 347.237 129.433 347.237 129.433V137.846ZM338.101 137.846H335.342V129.433C335.342 129.433 335.247 129.345 335.532 128.902C335.722 128.725 335.722 128.636 335.532 128.193C335.152 127.308 335.056 126.422 335.532 125.979C336.484 126.688 338.197 126.865 337.816 128.193C337.721 128.636 337.531 128.725 337.816 128.902C338.101 129.256 338.101 129.433 338.101 129.433V137.846ZM450.009 160.872C449.914 161.138 449.628 161.226 449.533 161.581V160.872H450.009ZM450.199 69.4779H446.298V65.4927C446.298 65.4927 446.203 65.1385 446.583 64.5186C447.059 64.3414 446.774 64.0758 446.678 63.5444C445.822 61.6846 448.486 61.3304 449.819 60.1791C450.675 61.1533 450.294 62.216 449.819 63.5444C449.533 63.9872 449.438 64.2529 449.914 64.5186C450.199 65.1385 450.199 65.4927 450.199 65.4927V69.4779V69.4779ZM441.92 69.4779H433.261V65.4927C433.261 65.4927 433.261 65.1385 433.356 64.5186C433.642 64.3414 433.451 64.0758 433.451 63.5444C432.404 61.1533 436.972 61.1533 437.448 59.2049H437.543C438.209 61.1533 442.587 61.1533 441.54 63.5444C441.445 63.9872 441.35 64.2529 441.635 64.5186C441.92 65.1385 441.92 65.4927 441.92 65.4927V69.4779V69.4779ZM428.503 69.4779H424.792V65.4927C424.792 65.4927 424.792 65.1385 425.172 64.5186C425.363 64.3414 425.363 64.0758 425.172 63.5444C424.697 62.216 424.411 60.8876 425.172 60.1791C426.6 61.3304 428.979 61.6846 428.313 63.5444C428.313 63.9872 428.027 64.2529 428.313 64.5186C428.788 65.1385 428.503 65.4927 428.503 65.4927V69.4779ZM166.624 160.252H164.531V158.038C164.531 158.038 164.531 157.861 164.626 157.595C164.721 157.595 164.721 157.241 164.626 157.064C164.245 155.913 165.863 155.824 166.434 155.293C167.1 155.647 166.814 156.267 166.434 157.064C166.339 157.241 166.339 157.595 166.434 157.595C166.814 157.861 166.719 158.038 166.719 158.038V160.252H166.624ZM161.866 160.252H157.203V158.038C157.203 158.038 157.013 157.861 157.203 157.595C157.298 157.595 157.298 157.241 157.203 157.064C156.727 155.647 159.202 155.647 159.487 154.673C159.677 155.647 162.152 155.647 161.676 157.064C161.581 157.241 161.581 157.595 161.676 157.595C161.771 157.861 161.771 158.038 161.771 158.038V160.252H161.866ZM154.539 160.252H152.445V158.038C152.445 158.038 152.445 157.861 152.54 157.595C152.921 157.595 152.826 157.241 152.636 157.064C152.35 156.267 152.065 155.559 152.636 155.293C153.397 155.647 154.729 155.913 154.349 157.064C154.349 157.241 154.253 157.595 154.444 157.595C154.729 157.861 154.634 158.038 154.634 158.038V160.252H154.539Z" fill="#C89428"/>
<path opacity="0.2" fill-rule="evenodd" clip-rule="evenodd" d="M905.863 162.643L905.958 181.861H906.624C907.29 181.861 908.052 182.392 908.052 183.278C908.052 183.721 907.29 184.429 906.624 184.429H905.958L906.244 208.075H907.671C908.622 208.075 909.384 208.695 909.384 209.58C909.384 210.377 908.622 211.174 907.671 211.174H906.244V219.588H912.429V213.123V212.591V212.414V212.06V210.377H911.668C911.382 210.377 910.906 210.112 910.906 209.58C910.906 209.315 911.382 208.872 911.668 208.872H912.524C912.143 207.721 911.572 205.507 912.619 203.292C913.19 202.318 914.142 201.433 915.189 200.547C916.426 199.573 917.472 198.776 918.519 198.422C918.519 198.422 918.519 198.245 918.519 197.979C918.329 197.802 918.519 197.448 918.709 197.182C918.709 197.005 918.995 196.739 919.376 196.473C919.661 196.208 919.947 196.119 920.137 195.853V195.322C919.947 195.234 919.946 195.234 919.946 195.056C919.946 195.056 919.947 194.791 920.042 194.702C920.042 194.702 920.137 194.614 920.232 194.614V194.171C920.137 193.994 920.137 193.994 920.137 193.994V193.639C920.137 193.462 920.232 193.462 920.232 193.462V192.931L920.517 189.654H920.613H920.803V192.931V193.374C920.993 193.374 920.993 193.374 920.993 193.551C920.993 193.551 920.993 193.551 920.993 193.905C920.993 193.905 920.993 193.905 920.993 194.082V194.436C920.993 194.436 920.993 194.525 921.088 194.525L921.279 194.879C921.279 195.056 921.279 195.056 921.088 195.145C920.993 195.145 920.993 195.145 920.993 195.145V195.676C921.279 195.942 921.469 196.031 921.755 196.296C922.23 196.562 922.516 196.828 922.516 197.005C922.706 197.359 922.706 197.802 922.706 197.979C922.706 198.245 922.706 198.333 922.516 198.422C923.467 198.864 924.704 199.573 925.941 200.547C927.083 201.433 928.035 202.318 928.416 203.292C929.558 205.507 929.082 207.721 928.606 208.872H929.367C929.653 208.872 930.033 209.226 930.033 209.58C930.033 210.023 929.653 210.377 929.367 210.377H928.796V212.414V219.588H934.411V215.16V214.185L934.316 213.831C934.411 213.654 934.411 213.566 934.411 213.388V210.732H933.364C932.698 210.732 932.127 210.2 932.127 209.58C932.127 209.049 932.698 208.606 933.364 208.606H934.696C934.22 206.658 933.174 203.293 934.982 199.75C935.743 198.245 937.17 196.739 938.883 195.234C940.786 194.082 942.594 193.02 944.212 192.134C944.117 191.957 944.117 191.603 943.927 191.337C943.927 190.983 944.117 190.451 944.212 190.008C944.498 189.743 944.878 189.211 945.354 188.857C945.83 188.503 946.496 188.237 946.591 187.972L946.877 187.529C946.591 187.175 946.591 187.086 946.496 187.086C946.496 187.086 946.496 186.909 946.496 186.643C946.496 186.643 946.496 186.466 946.591 186.112C946.591 186.112 946.591 186.112 946.877 186.112L946.972 185.492C946.877 185.403 946.591 185.403 946.591 185.138C946.591 185.049 946.591 185.049 946.591 184.872C946.591 184.783 946.591 184.606 946.591 184.606C946.877 184.518 946.877 184.518 946.972 184.341V183.544L947.257 178.23C947.257 178.23 947.352 178.23 947.448 178.23L947.828 183.544V184.163C947.828 184.252 947.923 184.252 947.923 184.429C948.114 184.429 948.114 184.606 948.114 184.695C948.114 184.872 948.114 184.872 948.114 184.961C947.923 185.226 947.923 185.226 947.828 185.315V185.935C947.923 185.935 948.114 185.935 948.304 185.935C948.304 186.2 948.304 186.466 948.304 186.466C948.304 186.732 948.304 186.909 948.304 186.909C948.114 186.909 948.114 187.086 947.923 187.44V187.883C948.399 188.149 948.875 188.326 949.541 188.769C949.827 189.123 950.302 189.654 950.397 189.92C950.683 190.363 950.683 190.894 950.683 191.248C950.683 191.514 950.588 191.868 950.588 191.868C952.301 192.842 954.109 193.994 955.631 195.145C957.534 196.65 958.962 198.245 959.723 199.662C961.436 203.204 960.675 206.481 960.009 208.518H961.055C961.912 208.518 962.388 208.872 962.388 209.492C962.388 210.112 961.912 210.643 961.055 210.643H960.199V213.743V219.499H966.194V215.957H965.433C964.862 215.957 964.291 215.514 964.291 214.54C964.291 214.097 964.862 213.566 965.433 213.566H966.099C964.671 210.82 961.626 202.23 965.718 193.285C967.431 189.92 970.571 186.82 974.283 183.721C978.089 181.152 981.895 178.85 985.226 176.99C984.94 176.37 984.845 176.105 984.845 175.219C984.845 174.51 984.845 173.536 985.321 172.562C985.797 171.676 986.844 170.702 987.89 170.171C988.747 169.285 989.794 168.754 990.555 168.311V166.806C990.46 166.717 990.174 166.363 989.984 166.186C989.984 166.009 989.794 165.743 989.794 165.477C989.794 165.034 989.984 164.857 989.984 164.592C990.174 164.326 990.555 164.06 990.745 163.972V162.643C990.65 162.378 990.555 162.289 990.46 162.201C990.365 161.669 990.174 161.581 990.174 161.226C990.174 161.138 990.364 160.872 990.555 160.606C990.555 160.252 990.745 160.252 990.84 160.252V158.658L991.602 147.765C990.555 147.765 989.413 147.677 988.271 147.145C987.224 146.437 986.368 145.64 985.987 144.843C986.368 145.108 986.939 145.64 987.7 145.994C990.174 147.411 993.695 146.614 995.313 144.046C996.74 141.743 995.789 138.466 993.219 137.049C992.648 136.872 991.792 136.429 991.126 136.429C992.363 136.252 993.6 136.695 994.551 137.138C997.501 138.732 998.548 142.363 996.74 144.931C995.789 146.614 994.171 147.588 992.268 147.765L992.744 158.658L992.839 160.252C992.934 160.252 993.029 160.252 993.219 160.606C993.41 160.784 993.41 161.138 993.41 161.226C993.41 161.581 993.41 161.669 993.219 162.201C993.029 162.201 993.029 162.378 992.839 162.643L992.934 163.972C993.029 164.06 993.41 164.237 993.505 164.592C993.695 164.857 993.885 165.034 993.885 165.477C993.885 165.654 993.695 166.009 993.505 166.186C993.41 166.363 993.315 166.717 993.029 166.806V168.4C993.885 168.843 995.027 169.374 995.693 170.26C996.931 170.879 997.787 171.854 998.263 172.651C998.738 173.625 998.834 174.51 998.834 175.307C998.834 176.193 998.548 176.459 998.358 177.079C1001.78 178.938 1005.69 181.241 1009.3 183.809C1013.01 186.909 1016.25 190.097 1017.96 193.374C1022.05 202.318 1018.91 210.909 1017.68 213.654H1018.25C1019.1 213.654 1019.67 214.185 1019.67 214.628C1019.67 215.602 1019.1 216.045 1018.25 216.045H1017.96V219.588H1023.67V215.16V214.185V213.831C1023.67 213.654 1023.67 213.566 1023.67 213.388V210.732H1022.72C1022.05 210.732 1021.48 210.2 1021.48 209.58C1021.48 209.049 1022.05 208.606 1022.72 208.606H1024.15C1023.29 206.658 1022.62 203.293 1024.24 199.75C1025.1 198.245 1026.53 196.739 1028.43 195.234C1030.05 194.082 1031.95 193.02 1033.57 192.134C1033.47 191.957 1033.47 191.603 1033.47 191.337C1033.38 190.983 1033.47 190.451 1033.57 190.008C1033.95 189.743 1034.23 189.211 1034.8 188.857C1035.28 188.503 1035.76 188.237 1036.23 187.972V187.529C1036.14 187.175 1036.14 187.086 1035.95 187.086C1035.85 187.086 1035.85 186.909 1035.85 186.643C1035.85 186.643 1035.85 186.466 1035.95 186.112C1036.14 186.112 1036.14 186.112 1036.23 186.112L1036.33 185.492C1036.23 185.403 1036.23 185.403 1036.14 185.138C1036.14 185.049 1036.14 185.049 1036.14 184.872C1036.14 184.783 1036.14 184.606 1036.14 184.606C1036.23 184.518 1036.23 184.518 1036.33 184.341V183.544L1036.52 178.23H1036.71C1036.8 178.23 1036.9 178.23 1036.9 178.23L1037.18 183.544V184.163C1037.28 184.252 1037.28 184.252 1037.37 184.429C1037.37 184.429 1037.37 184.606 1037.37 184.695C1037.37 184.872 1037.37 184.872 1037.37 184.961C1037.37 185.226 1037.28 185.226 1037.18 185.315V185.935C1037.37 185.935 1037.37 185.935 1037.37 185.935C1037.66 186.2 1037.66 186.466 1037.66 186.466C1037.66 186.732 1037.66 186.909 1037.56 186.909C1037.56 186.909 1037.37 186.997 1037.28 187.352L1037.37 187.794C1037.66 188.06 1038.23 188.237 1038.61 188.68C1039.18 189.034 1039.66 189.566 1039.94 189.831C1040.04 190.274 1040.13 190.805 1040.04 191.16C1040.04 191.425 1040.04 191.78 1039.94 191.957C1041.46 192.754 1043.46 193.905 1045.08 195.056C1046.89 196.562 1048.41 198.156 1049.27 199.573C1050.79 203.115 1049.93 206.392 1049.46 208.429H1050.41C1051.17 208.429 1051.74 208.783 1051.74 209.403C1051.74 210.023 1051.17 210.554 1050.41 210.554H1049.55V213.654V219.41H1055.17V213.123V212.591V212.414V212.06V210.377H1054.69C1054.22 210.377 1053.84 210.112 1053.84 209.58C1053.84 209.315 1054.22 208.872 1054.69 208.872H1055.36C1055.07 207.721 1054.5 205.507 1055.55 203.292C1056.12 202.318 1057.17 201.433 1058.02 200.547C1059.07 199.573 1060.21 198.864 1061.26 198.422C1061.26 198.422 1061.26 198.245 1061.26 197.979C1061.26 197.802 1061.26 197.359 1061.26 197.182C1061.35 197.005 1061.73 196.739 1062.11 196.473C1062.31 196.208 1062.69 196.119 1062.78 195.853V195.322H1062.69C1062.69 195.322 1062.69 195.234 1062.69 195.056V194.614C1062.69 194.614 1062.78 194.525 1062.97 194.525L1063.07 194.171C1062.78 193.994 1062.78 193.994 1062.78 193.994C1062.69 193.728 1062.69 193.728 1062.69 193.728C1062.69 193.728 1062.69 193.639 1062.78 193.639C1062.78 193.462 1062.97 193.462 1063.07 193.462V192.931L1063.16 189.654C1063.16 189.654 1063.16 189.654 1063.35 189.654V192.931V193.374C1063.54 193.374 1063.54 193.374 1063.54 193.551L1063.73 193.639C1063.73 193.639 1063.54 193.639 1063.54 193.905C1063.54 193.905 1063.54 193.905 1063.35 194.082L1063.54 194.436C1063.54 194.436 1063.54 194.525 1063.73 194.525V194.879C1063.73 195.056 1063.73 195.056 1063.73 195.056L1063.54 195.145V195.676C1063.83 195.942 1064.02 196.031 1064.4 196.296C1064.59 196.562 1064.97 196.828 1065.16 197.005C1065.35 197.359 1065.35 197.802 1065.35 197.979C1065.35 198.245 1065.26 198.333 1065.16 198.422C1066.21 198.864 1067.35 199.573 1068.4 200.547C1069.54 201.433 1070.58 202.318 1071.06 203.292C1072.11 205.507 1071.63 207.721 1071.15 208.872H1072.01C1072.3 208.872 1072.77 209.226 1072.77 209.58C1072.77 210.023 1072.3 210.377 1072.01 210.377H1071.35V212.414V219.588H1075.63V201.964H1073.91C1072.77 201.964 1071.82 201.079 1071.82 200.016C1071.82 198.865 1072.87 198.067 1073.91 198.067H1075.63L1075.82 168.488H1075.15C1074.2 168.488 1073.25 167.691 1073.25 166.806C1073.25 165.832 1074.2 165.123 1075.15 165.123H1075.91L1076.01 140.858H1075.15C1074.39 140.858 1073.53 140.326 1073.53 139.529C1073.53 138.821 1074.2 138.201 1074.77 138.112V128.459V127.751V127.573C1074.77 127.396 1074.77 127.308 1074.77 127.308V125.271H1074.2C1073.72 125.271 1073.15 124.917 1073.15 124.474C1073.15 124.031 1073.72 123.677 1074.2 123.677H1075.15C1074.58 122.348 1074.01 119.869 1075.25 117.389C1075.82 116.326 1076.96 115.264 1078.1 114.201C1079.43 113.138 1080.77 112.253 1082 111.721C1081.81 111.721 1081.81 111.544 1081.81 111.278C1081.81 110.924 1081.81 110.658 1082 110.481C1082.1 109.95 1082.38 109.596 1082.95 109.507C1083.05 109.241 1083.53 108.887 1083.81 108.799V108.179H1083.53C1083.53 108.179 1083.53 107.913 1083.53 107.825C1083.53 107.825 1083.53 107.736 1083.53 107.382C1083.53 107.382 1083.81 107.382 1083.91 107.382V106.762C1083.81 106.762 1083.81 106.762 1083.81 106.762C1083.81 106.762 1083.53 106.585 1083.53 106.319L1083.81 106.142C1083.81 106.053 1083.91 106.053 1083.91 106.053V105.522L1084.1 101.714C1084.1 101.537 1084.1 101.537 1084.19 101.537L1084.48 105.611V106.053C1084.57 106.053 1084.57 106.053 1084.57 106.142C1084.76 106.142 1084.86 106.23 1084.86 106.23C1084.86 106.496 1084.76 106.496 1084.76 106.673C1084.57 106.673 1084.57 106.673 1084.57 106.673V107.116C1084.57 107.116 1084.76 107.116 1084.86 107.116C1084.86 107.47 1084.86 107.559 1084.86 107.559C1084.86 107.647 1084.86 107.913 1084.86 107.913C1084.86 107.913 1084.76 107.913 1084.57 107.913V108.799C1084.95 108.887 1085.14 109.241 1085.52 109.419C1086.09 109.507 1086.29 109.861 1086.57 110.393C1086.57 110.57 1086.67 110.836 1086.67 111.19C1086.67 111.455 1086.57 111.544 1086.57 111.544C1087.62 112.164 1088.95 113.05 1090.09 114.112C1091.61 115.086 1092.57 116.149 1093.14 117.3C1094.37 119.78 1093.8 122.26 1093.33 123.588H1094.18C1094.66 123.588 1094.94 123.943 1094.94 124.385C1094.94 124.828 1094.66 125.182 1094.18 125.182H1093.42V127.573V138.024C1094.28 138.112 1094.75 138.644 1094.75 139.441C1094.75 140.238 1093.99 140.769 1093.04 140.769H1092.19L1092.38 165.034H1093.04C1094.18 165.034 1094.94 165.654 1094.94 166.717C1094.94 167.603 1094.18 168.4 1093.04 168.4H1092.47L1092.57 197.979H1094.37C1095.61 197.979 1096.56 198.864 1096.56 199.927C1096.56 201.078 1095.52 201.876 1094.37 201.876H1092.57L1092.66 246.333C1093.8 245.359 1094.94 244.384 1096.37 243.587C1100.46 240.045 1105.32 237.477 1109.03 235.617C1108.74 235.086 1108.55 234.2 1108.55 233.403C1108.55 232.429 1108.74 231.366 1109.12 230.392C1109.69 229.241 1110.93 228.178 1111.98 227.469C1113.12 226.495 1114.26 225.875 1115.21 225.433V223.484C1115.02 223.396 1114.74 223.041 1114.74 222.776C1114.45 222.599 1114.36 222.156 1114.36 221.802C1114.36 221.447 1114.45 221.005 1114.74 220.65C1114.83 220.473 1115.21 220.296 1115.4 220.03V218.436C1115.31 218.348 1115.21 218.171 1115.02 217.905C1114.83 217.728 1114.83 217.462 1114.83 217.196C1114.83 216.665 1114.83 216.665 1115.02 216.222C1115.21 216.134 1115.4 215.78 1115.69 215.78V214.185L1116.26 201.078C1116.45 200.901 1116.45 200.724 1116.64 200.724C1116.93 200.724 1117.02 200.901 1117.02 201.078L1117.69 214.185L1117.88 215.78C1117.97 215.78 1118.07 216.134 1118.26 216.222C1118.45 216.665 1118.54 216.665 1118.54 217.196C1118.54 217.374 1118.45 217.639 1118.45 217.905C1118.07 218.171 1118.07 218.259 1117.97 218.436V220.03C1118.16 220.208 1118.45 220.385 1118.64 220.65C1118.92 221.005 1118.92 221.447 1118.92 221.802C1118.92 222.156 1118.92 222.599 1118.64 222.776C1118.54 223.041 1118.45 223.307 1118.07 223.484V225.344C1119.02 225.875 1120.26 226.495 1121.4 227.381C1122.54 228.089 1123.68 229.152 1124.16 230.303C1124.73 231.278 1124.92 232.34 1124.92 233.314C1124.73 234.111 1124.63 234.997 1124.54 235.528C1128.25 237.388 1132.82 240.045 1137.1 243.499C1138.15 244.207 1139.19 244.827 1140.15 245.801H1141.1L1141.29 222.244H1140.81C1139.96 222.244 1139.29 221.713 1139.29 220.916C1139.29 220.119 1139.96 219.499 1140.81 219.499H1141.29L1141.38 200.37H1140.81C1140.15 200.37 1139.48 199.839 1139.48 199.219C1139.48 198.422 1139.76 198.067 1140.43 198.067V194.968V194.171C1140.43 193.994 1140.43 193.994 1140.43 193.728V192.4H1139.76C1139.48 192.4 1139.19 192.222 1139.19 191.691C1139.19 191.425 1139.48 191.16 1139.76 191.16H1140.72C1140.34 190.008 1139.76 188.149 1140.81 186.023C1141.29 185.226 1142.14 184.252 1143.1 183.544C1144.05 182.747 1145.09 182.127 1146.05 181.507C1145.85 181.507 1145.86 181.418 1145.86 181.152C1145.86 180.975 1145.86 180.798 1146.14 180.533C1146.24 180.178 1146.43 179.913 1146.81 179.824C1147.09 179.647 1147.28 179.47 1147.57 179.381V178.938C1147.57 178.938 1147.38 178.938 1147.38 178.673C1147.38 178.673 1147.28 178.673 1147.28 178.584C1147.28 178.584 1147.38 178.584 1147.38 178.407L1147.57 178.053V177.787V177.433H1147.38C1147.38 177.344 1147.57 177.344 1147.57 177.344C1147.57 177.079 1147.57 177.079 1147.57 177.079V176.724L1147.85 173.713C1147.85 173.536 1147.85 173.536 1147.95 173.536C1147.95 173.536 1147.95 173.536 1147.95 173.713L1148.14 176.636V176.99C1148.14 176.99 1148.14 176.99 1148.14 177.256C1148.33 177.256 1148.33 177.256 1148.33 177.344C1148.33 177.344 1148.33 177.344 1148.14 177.344V177.699V177.876L1148.33 178.23C1148.42 178.407 1148.42 178.407 1148.42 178.407C1148.42 178.496 1148.42 178.496 1148.33 178.496C1148.33 178.761 1148.33 178.761 1148.14 178.761V179.204C1148.42 179.293 1148.71 179.47 1149.09 179.647C1149.28 179.735 1149.57 180.001 1149.66 180.355C1149.76 180.621 1149.85 180.798 1149.85 180.975C1149.85 181.241 1149.76 181.33 1149.66 181.33C1150.52 181.949 1151.75 182.569 1152.71 183.366C1153.66 184.163 1154.61 185.138 1154.99 185.846C1155.94 187.883 1155.56 189.831 1154.99 190.983H1155.85C1156.04 191.16 1156.42 191.425 1156.42 191.691C1156.42 192.222 1156.04 192.4 1155.85 192.4H1155.28V194.171V198.245C1155.85 198.245 1156.13 198.51 1156.13 199.396C1156.13 200.016 1155.75 200.547 1154.9 200.547H1154.23L1154.42 219.676H1154.9C1154.99 219.676 1154.99 219.676 1154.99 219.676H1165.08L1165.27 160.961H1162.98C1161.18 160.961 1159.84 159.544 1159.84 158.127C1159.84 156.444 1161.27 155.381 1162.98 155.381H1165.27L1165.65 113.05H1164.7C1163.27 113.05 1162.13 112.164 1162.13 110.747C1162.13 109.33 1163.36 108.356 1164.7 108.356H1165.65L1165.74 73.9945H1164.7C1163.36 73.9945 1162.41 73.0204 1162.41 71.6919C1162.41 70.8063 1163.17 69.9207 1164.41 69.7436V63.8986V62.7474L1164.13 62.4817C1164.13 62.3931 1164.41 62.216 1164.41 61.9503V59.2049H1163.36C1162.6 59.2049 1162.03 58.6736 1162.03 58.0537C1162.03 57.5223 1162.6 57.0795 1163.36 57.0795H1164.7C1163.94 55.2197 1163.17 51.5888 1164.79 48.0463C1165.65 46.3637 1167.27 44.681 1168.98 43.3526C1170.79 42.1128 1172.79 40.873 1174.4 40.1645C1174.31 39.8988 1174.31 39.5446 1174.31 39.1018C1174.21 38.8361 1174.31 38.3933 1174.4 37.9505C1174.69 37.5077 1175.16 37.0649 1175.64 36.5335C1176.12 36.2678 1176.59 36.0022 1177.07 35.6479V35.028C1177.07 35.028 1176.97 34.9394 1176.78 34.9394C1176.69 34.7623 1176.69 34.5852 1176.69 34.3195C1176.69 34.3195 1176.69 34.1424 1176.78 33.8767C1176.97 33.7881 1177.07 33.7881 1177.07 33.6996L1177.35 32.9911C1177.07 32.814 1177.07 32.814 1177.07 32.7254C1176.97 32.7254 1176.97 32.6369 1176.97 32.6369C1176.97 32.1941 1176.97 32.1941 1177.07 32.1055C1177.07 32.1055 1177.07 32.1055 1177.35 31.8398V31.2199L1177.54 25.7292L1177.64 25.6406L1177.83 25.7292L1178.02 31.2199L1178.21 31.7513C1178.21 32.0169 1178.21 32.0169 1178.3 32.0169C1178.3 32.1055 1178.4 32.1055 1178.4 32.5483C1178.4 32.5483 1178.4 32.7254 1178.3 32.7254C1178.21 32.814 1178.21 32.814 1178.21 32.9911V33.6996C1178.3 33.7881 1178.4 33.7881 1178.4 33.8767C1178.4 34.0538 1178.69 34.2309 1178.69 34.2309C1178.69 34.4966 1178.4 34.6737 1178.4 34.8509C1178.4 34.8509 1178.3 34.9394 1178.21 34.9394V35.6479C1178.69 36.0022 1179.16 36.2678 1179.64 36.5335C1180.21 37.0649 1180.59 37.5077 1180.78 37.9505C1181.06 38.3933 1181.06 38.8361 1181.06 39.1018C1181.06 39.456 1181.06 39.8102 1180.97 40.1645C1182.49 40.7844 1184.3 42.0242 1186.2 43.3526C1188.2 44.681 1189.53 46.3637 1190.48 48.0463C1192.2 51.5888 1191.34 55.2197 1190.58 57.0795H1191.63C1192.39 57.0795 1192.86 57.5223 1192.86 58.0537C1192.86 58.6736 1192.39 59.2049 1191.63 59.2049H1190.68V62.4817V69.5665C1191.72 69.8322 1192.39 70.6292 1192.39 71.5148C1192.39 72.8432 1191.34 73.8174 1190.29 73.8174H1188.96L1189.15 108.179H1190.29C1191.72 108.179 1192.86 109.241 1192.86 110.57C1192.86 111.987 1191.63 112.872 1190.29 112.872H1189.15L1189.44 155.204H1192.1C1192.58 155.204 1193.15 155.293 1193.63 155.559C1198.76 148.828 1205.42 142.717 1212.94 137.049C1223.22 128.99 1234.73 122.26 1244.25 117.3C1243.58 115.972 1243.39 114.112 1243.3 112.164C1243.01 109.95 1243.49 107.205 1244.63 104.548C1245.96 101.802 1248.82 99.2342 1251.58 97.0202C1254.34 95.1604 1257.48 93.5663 1259.67 92.3265L1259.95 87.7214C1259.19 87.2786 1258.71 86.8357 1258.33 86.1273C1257.86 85.4188 1257.76 84.5332 1257.76 83.559C1257.76 82.6734 1257.86 81.6993 1258.33 80.9908C1259 80.3709 1259.57 79.6624 1260.24 79.2196L1260.52 75.3229C1260.05 74.8801 1259.67 74.5259 1259.29 74.1716C1259 73.286 1258.71 72.8432 1258.71 72.0462C1258.71 71.2491 1259.09 70.4521 1259.48 70.0093C1259.76 69.3894 1260.24 68.9466 1260.9 68.6809L1261 64.2529L1262.43 32.9025C1259.38 32.9025 1256.14 32.1055 1253.19 30.6885C1250.15 28.8288 1247.58 26.5262 1246.25 23.6923C1247.49 25.1978 1249.01 26.6148 1251.01 27.5004C1258.43 31.6627 1268.33 29.2716 1272.7 22.1868C1277.18 15.0134 1274.61 6.06878 1266.9 1.81789C1264.99 1.02085 1263.09 0.223808 1260.9 0.0466876C1264.14 -0.218993 1267.66 0.666597 1270.8 2.26068C1279.36 6.77726 1282.12 16.7846 1277.18 24.5779C1274.42 29.183 1269.47 32.0169 1264.14 32.6369L1265.85 64.0758L1265.95 68.5038C1266.52 68.7695 1266.9 69.2122 1267.28 69.8322C1267.75 70.275 1267.85 71.072 1267.85 71.8691C1267.85 72.6661 1267.75 73.1089 1267.37 73.9945C1267.18 74.3488 1266.8 74.703 1266.33 75.1458L1266.42 79.0424C1267.18 79.3967 1267.75 80.1052 1268.23 80.8137C1268.71 81.6107 1269.09 82.5849 1269.09 83.3819C1269.09 84.4446 1268.71 85.2417 1268.33 85.9502C1268.04 86.5701 1267.37 87.0129 1266.9 87.5442L1267.18 92.1494C1269.37 93.3892 1272.32 94.9833 1275.18 96.8431C1278.03 98.9685 1280.79 101.625 1282.03 104.371C1283.36 107.027 1283.65 109.861 1283.46 111.987C1283.46 113.935 1282.98 115.706 1282.5 117.123C1292.12 122.083 1303.63 128.725 1314 136.872C1324.47 144.931 1334.08 154.496 1338.74 164.415C1349.4 187.086 1343.12 209.403 1339.12 219.499H1351.68V246.953C1352.92 246.067 1353.87 244.916 1355.21 243.942C1358.44 241.551 1362.06 239.514 1365.1 237.92C1365.01 237.388 1364.72 237.034 1364.72 236.148C1364.72 235.528 1364.72 234.554 1365.39 234.023C1365.58 232.96 1366.53 232.252 1367.39 231.72C1368.24 230.923 1369.19 230.48 1369.86 230.126V228.709C1369.67 228.621 1369.57 228.267 1369.38 228.178C1369.38 227.735 1369.19 227.735 1369.19 227.469C1369.19 227.027 1369.38 227.027 1369.57 226.584C1369.57 226.584 1369.86 226.141 1370.05 225.964V224.813C1369.96 224.724 1369.86 224.37 1369.67 224.37C1369.57 224.281 1369.57 223.927 1369.57 223.838C1369.57 223.573 1369.57 223.307 1369.86 223.307C1369.86 222.864 1370.05 222.864 1370.24 222.864V221.359L1370.81 211.174C1370.81 211.174 1370.91 210.997 1371 210.997C1371.1 210.997 1371.29 211.174 1371.29 211.174L1371.76 221.359L1371.86 222.776C1371.95 222.776 1372.14 222.776 1372.24 223.219C1372.43 223.219 1372.43 223.484 1372.43 223.75C1372.43 223.838 1372.43 224.193 1372.33 224.281C1372.24 224.281 1372.14 224.547 1371.86 224.724L1371.95 225.875C1372.24 225.964 1372.43 226.407 1372.62 226.495C1372.72 226.938 1372.81 226.938 1372.81 227.381C1372.81 227.558 1372.72 227.647 1372.62 228.089C1372.43 228.178 1372.33 228.532 1372.14 228.621V230.126C1372.72 230.48 1373.67 230.923 1374.52 231.72C1375.57 232.34 1376.33 233.049 1376.71 234.023C1377.09 234.643 1377.28 235.528 1377.28 236.148C1377.09 236.945 1377 237.388 1376.9 237.92C1377.76 238.362 1378.9 238.805 1379.76 239.514L1379.85 219.588H1379.38C1378.62 219.588 1377.85 219.056 1377.85 218.259C1377.85 217.639 1378.62 216.754 1379.38 216.754H1379.85L1380.04 197.89H1379.38C1378.71 197.89 1378.14 197.27 1378.14 196.65C1378.14 196.031 1378.42 195.588 1379.09 195.234V192.222V191.691V191.514V191.248V189.831H1378.42C1378.23 189.831 1377.85 189.389 1377.85 188.946C1377.85 188.68 1378.23 188.591 1378.42 188.591H1379.28C1378.9 187.617 1378.42 185.492 1379.38 183.455C1379.85 182.481 1380.9 181.595 1381.76 180.887C1382.8 180.09 1383.75 179.47 1384.8 179.027C1384.61 178.938 1384.61 178.673 1384.61 178.496C1384.61 178.496 1384.61 177.964 1384.8 177.787C1384.8 177.433 1385.18 177.344 1385.37 177.079C1385.66 176.902 1385.94 176.724 1386.23 176.459V176.282C1386.23 176.193 1386.04 176.193 1385.94 176.193C1385.94 176.193 1385.94 175.927 1385.94 175.839C1385.94 175.839 1385.94 175.75 1386.04 175.75C1386.04 175.485 1386.23 175.485 1386.23 175.485V175.042V174.776C1386.04 174.776 1386.04 174.776 1386.04 174.688C1386.04 174.688 1386.04 174.51 1386.23 174.51C1386.23 174.333 1386.23 174.333 1386.32 174.333V173.979L1386.42 170.968H1386.51L1386.7 173.979V174.333C1386.8 174.333 1386.89 174.333 1386.89 174.51V174.688C1386.89 174.776 1386.89 174.776 1386.89 174.776L1386.8 175.042V175.307C1386.89 175.307 1386.89 175.307 1387.08 175.573V175.662C1387.08 175.75 1387.08 176.016 1387.08 176.016C1386.89 176.016 1386.89 176.016 1386.8 176.105L1386.89 176.282C1387.08 176.547 1387.27 176.724 1387.66 176.902C1387.85 177.167 1388.23 177.256 1388.32 177.61C1388.32 177.787 1388.32 178.318 1388.32 178.318C1388.32 178.407 1388.32 178.761 1388.32 178.761C1389.18 179.293 1390.32 179.913 1391.37 180.621C1392.32 181.33 1393.36 182.215 1393.56 183.189C1394.51 185.226 1394.13 187.352 1393.75 188.326H1394.41C1394.7 188.326 1394.98 188.414 1394.98 188.68C1394.98 189.123 1394.7 189.566 1394.41 189.566H1393.84V191.248V195.056C1394.41 195.411 1394.89 195.853 1394.89 196.473C1394.89 197.093 1394.13 197.713 1393.46 197.713H1392.89L1393.08 216.842H1393.56C1394.41 216.842 1395.08 217.728 1395.08 218.348C1395.08 219.145 1394.41 219.676 1393.56 219.676H1393.08L1393.17 232.606C1395.27 229.152 1398.88 225.61 1402.79 222.864C1407.07 219.41 1411.92 216.577 1415.92 214.363C1415.82 213.92 1415.63 213.123 1415.54 212.503C1415.54 211.351 1415.63 210.289 1416.2 209.137C1416.77 207.898 1417.82 206.746 1419.06 205.949C1420.29 205.152 1421.53 204.355 1422.29 204.09L1422.58 202.141C1422.29 202.141 1422.1 201.787 1421.82 201.344C1421.72 201.167 1421.53 200.813 1421.53 200.547C1421.53 200.104 1421.72 199.573 1421.91 199.307C1422.1 199.042 1422.29 198.776 1422.67 198.599L1422.77 197.005C1422.58 196.916 1422.29 196.65 1422.29 196.385C1422.2 196.296 1422.1 196.031 1422.1 195.499C1422.1 195.411 1422.2 194.968 1422.29 194.791C1422.58 194.436 1422.67 194.259 1422.77 193.905L1423.05 192.4L1423.63 178.761C1423.63 178.673 1423.82 178.673 1424.01 178.673C1424.1 178.673 1424.39 178.673 1424.39 178.761L1424.96 192.4L1425.05 193.905C1425.34 194.171 1425.53 194.436 1425.81 194.791C1425.81 194.968 1425.91 195.411 1425.91 195.499C1425.91 195.942 1425.81 196.296 1425.81 196.385C1425.53 196.65 1425.43 196.916 1425.24 197.005L1425.34 198.599C1425.72 198.687 1425.81 199.042 1426.1 199.307C1426.29 199.573 1426.39 200.016 1426.39 200.547C1426.39 200.813 1426.29 201.167 1426.1 201.344C1425.91 201.787 1425.81 202.141 1425.53 202.141V204.09C1426.58 204.444 1427.62 205.241 1428.86 205.949C1430.19 206.746 1431.24 207.898 1431.81 209.137C1432.28 210.2 1432.38 211.174 1432.38 212.326C1432.38 213.034 1432.09 213.831 1432 214.185C1435.52 216.134 1439.9 218.613 1443.89 221.713L1444.08 184.429H1442.66C1440.47 184.429 1438.66 182.747 1438.66 180.621C1438.66 178.407 1440.47 176.813 1442.66 176.813H1444.08L1444.47 124.385H1442.66C1440.75 124.385 1439.14 122.703 1439.14 121.02C1439.14 119.514 1440.37 118.098 1441.99 117.655V97.0202V95.5146L1441.9 95.1604C1441.9 94.8062 1442.09 94.7176 1442.09 94.2748V90.201H1440.47C1439.42 90.201 1438.57 89.3154 1438.57 88.4298C1438.57 87.3671 1439.42 86.6586 1440.47 86.6586H1442.47C1441.42 83.9133 1440.28 78.5111 1442.85 73.1089C1444.08 70.4521 1446.65 68.1495 1449.32 66.0241C1451.89 63.9872 1454.93 62.0389 1457.41 60.8876C1457.31 60.4448 1457.12 59.9134 1457.03 59.5592C1457.03 59.1164 1457.12 58.2308 1457.5 57.5223C1457.88 56.9909 1458.64 56.1053 1459.31 55.6625C1460.07 55.2197 1460.93 54.7769 1461.4 54.2456V53.2714C1461.31 53.0057 1461.12 53.0057 1461.02 52.8286C1460.93 52.5629 1460.93 52.4744 1460.93 52.1201C1460.93 52.1201 1460.93 51.5888 1461.02 51.5002C1461.12 51.4116 1461.4 51.0574 1461.5 51.0574L1461.69 49.9061C1461.5 49.8176 1461.4 49.8176 1461.31 49.5519C1461.12 49.4633 1461.12 49.3747 1461.12 49.1976C1461.12 48.9319 1461.12 48.8434 1461.4 48.4892C1461.4 48.4006 1461.5 48.312 1461.69 48.312L1461.78 47.2493L1462.07 38.7475C1462.07 38.7475 1462.26 38.659 1462.36 38.659C1462.45 38.659 1462.45 38.7475 1462.45 38.7475L1462.93 47.2493V48.312C1463.21 48.312 1463.21 48.4006 1463.4 48.4892C1463.59 48.8434 1463.59 48.9319 1463.59 49.1976C1463.59 49.3747 1463.59 49.3748 1463.4 49.5519C1463.4 49.8176 1463.21 49.8176 1463.02 49.9061L1463.21 51.0574C1463.4 51.0574 1463.59 51.4116 1463.69 51.5002L1463.78 52.0316C1463.78 52.4744 1463.78 52.5629 1463.69 52.7401C1463.59 52.9172 1463.59 52.9172 1463.21 53.1828L1463.4 54.2456C1463.97 54.7769 1464.73 55.2197 1465.4 55.6625C1466.16 56.0168 1466.83 56.9024 1467.21 57.5223C1467.49 58.2308 1467.49 59.1164 1467.49 59.5592C1467.49 59.8249 1467.49 60.3562 1467.3 60.8876C1469.78 62.0389 1472.73 63.9872 1475.39 66.0241C1478.15 68.1495 1480.53 70.4521 1481.86 73.1089C1484.34 78.5996 1483.1 84.0018 1482.15 86.6586H1483.77C1484.91 86.6586 1485.67 87.3671 1485.67 88.4298C1485.67 89.3154 1484.91 90.201 1483.77 90.201H1482.34V95.1604V117.743C1483.96 118.098 1485.1 119.603 1485.1 121.109C1485.1 122.88 1483.48 124.474 1481.48 124.474H1479.67L1480.06 176.902H1481.48C1483.67 176.902 1485.48 178.496 1485.48 180.71C1485.48 182.835 1483.67 184.518 1481.48 184.518H1480.15L1480.34 249.078H1484.43C1486.81 249.078 1489 250.938 1489 253.329C1489 255.543 1486.91 257.669 1484.43 257.669H1480.53L1481.01 348H1443.13H1351.49H1153.28H1091.04H892.731H740V268.119H747.137C745.995 264.399 745.139 258.82 747.993 252.798C749.516 249.787 752.276 246.864 755.797 244.207C758.937 241.816 762.553 239.514 765.693 237.92C765.503 237.654 765.312 237.034 765.312 236.414C765.312 235.617 765.312 234.997 765.788 234.111C766.359 233.226 767.216 232.34 767.882 231.72C768.833 230.923 769.88 230.569 770.356 230.126L770.546 228.709C770.356 228.621 770.166 228.532 770.07 228.266C769.975 228.089 769.88 227.735 769.88 227.558C769.88 227.115 769.975 227.027 770.07 226.584C770.166 226.584 770.356 226.407 770.641 226.141V224.901C770.546 224.813 770.356 224.636 770.356 224.37C770.356 224.281 770.165 223.927 770.165 223.838C770.165 223.484 770.356 223.396 770.356 223.219C770.451 223.041 770.641 222.776 770.927 222.776V221.359L771.498 211.174C771.498 210.997 771.498 210.997 771.688 210.997C771.783 210.997 771.878 210.997 771.878 211.174L772.354 221.359L772.544 222.776C772.735 222.776 772.83 223.041 772.925 223.219C772.925 223.307 773.115 223.484 773.115 223.838C773.115 223.927 772.925 224.193 772.925 224.37C772.83 224.636 772.735 224.813 772.64 224.901L772.735 226.052C772.83 226.318 773.115 226.495 773.211 226.495C773.306 226.938 773.401 226.938 773.401 227.469C773.401 227.647 773.306 228.001 773.306 228.178C773.116 228.444 772.925 228.532 772.83 228.621V230.126C773.686 230.569 774.543 230.923 775.304 231.72C776.256 232.429 777.112 233.226 777.493 234.111C777.778 234.997 777.969 235.617 777.969 236.414C777.778 236.945 777.778 237.565 777.588 237.92C780.443 239.602 784.154 241.816 787.484 244.207C790.815 246.864 793.765 249.787 795.288 252.798C798.047 258.82 797.191 264.399 796.239 268.119H800.141L800.236 230.923H798.428C797.191 230.923 796.429 230.126 796.429 229.064C796.429 227.912 797.286 226.938 798.428 226.938H800.236L800.426 197.359H799.95C798.904 197.359 798.047 196.65 798.047 195.676C798.047 194.614 798.904 193.905 799.95 193.905H800.426L800.807 169.728H799.95C798.999 169.728 798.238 169.285 798.238 168.311C798.238 167.691 798.904 167.071 799.57 166.983V157.507V156.71L799.475 156.533C799.57 156.356 799.57 156.178 799.57 156.09V154.23H798.904C798.333 154.23 797.952 154.053 797.952 153.433C797.952 153.079 798.333 152.547 798.904 152.547H799.855C799.379 151.219 798.713 148.828 799.95 146.348C800.426 145.02 801.663 143.957 802.9 143.16C804.042 142.186 805.374 141.3 806.612 140.68C806.516 140.592 806.516 140.415 806.516 140.149C806.516 139.972 806.516 139.618 806.612 139.441C806.897 139.175 807.087 138.732 807.468 138.466C807.849 138.289 808.324 138.024 808.42 137.846V137.315C808.42 137.138 808.42 137.138 808.324 137.049V136.872C808.324 136.872 808.324 136.695 808.324 136.341C808.42 136.341 808.42 136.164 808.42 136.164L808.515 135.81C808.42 135.81 808.42 135.81 808.42 135.721C808.42 135.721 808.42 135.544 808.42 135.455V135.19C808.42 135.19 808.42 135.101 808.515 135.101V134.393L808.705 130.85C808.705 130.496 808.895 130.496 808.895 130.496C808.895 130.496 808.991 130.496 808.991 130.85L809.276 134.393V135.101C809.371 135.101 809.371 135.101 809.371 135.101C809.466 135.19 809.466 135.367 809.466 135.367C809.466 135.455 809.466 135.632 809.371 135.632C809.371 135.721 809.371 135.721 809.276 135.721L809.371 136.252C809.371 136.252 809.466 136.429 809.657 136.429C809.657 136.695 809.657 136.872 809.657 136.872V137.049C809.466 137.049 809.371 137.049 809.371 137.315V137.846C809.657 138.024 809.847 138.289 810.323 138.466C810.704 138.644 811.084 139.086 811.084 139.441C811.274 139.618 811.274 139.972 811.274 140.149C811.274 140.415 811.274 140.592 811.274 140.68C812.416 141.3 813.749 142.274 815.081 143.16C816.223 143.957 817.365 145.02 817.84 146.348C819.173 148.739 818.411 151.219 817.936 152.547H818.887C819.553 152.547 819.744 152.99 819.744 153.433C819.744 153.964 819.553 154.23 818.887 154.23H818.221V156.444V166.983C818.887 167.071 819.553 167.603 819.553 168.311C819.553 169.285 818.697 169.728 817.745 169.728H816.984L817.079 193.905H817.65C818.697 193.905 819.648 194.614 819.648 195.676C819.648 196.562 818.697 197.359 817.65 197.359H816.984L817.27 226.938H819.077C820.315 226.938 821.076 227.912 821.076 229.064C821.076 230.038 820.219 230.923 819.077 230.923H817.27L817.365 268.119H823.455V262.097H822.598C821.742 262.097 820.981 261.565 820.981 260.857C820.981 259.971 821.742 259.263 822.598 259.263H823.455C821.837 255.897 817.84 245.093 823.074 234.111C825.072 229.772 829.164 225.521 833.827 222.156C838.395 218.702 843.533 215.602 847.625 213.477C847.34 212.768 847.245 211.971 847.245 211.351C846.959 210.2 847.245 209.137 847.721 207.986C848.387 206.658 849.528 205.595 850.766 204.709C852.003 203.912 853.335 203.292 854.286 202.673L854.382 200.547C854.001 200.459 853.811 200.281 853.62 199.927C853.525 199.573 853.335 199.307 853.335 198.776C853.335 198.333 853.525 198.156 853.811 197.713C853.811 197.359 854.096 197.182 854.667 197.093V195.234C854.382 195.145 854.286 194.968 854.096 194.702C854.001 194.525 853.811 194.171 853.811 193.639C853.811 193.551 854.001 193.285 854.096 192.842C854.382 192.577 854.382 192.4 854.857 192.4V190.451L855.523 176.37C855.523 176.37 855.714 176.193 855.809 176.193C856.094 176.193 856.19 176.282 856.19 176.37L856.856 190.451V192.4C857.236 192.4 857.522 192.577 857.522 192.842C857.902 193.197 857.903 193.551 857.903 193.639C857.903 194.082 857.902 194.525 857.522 194.702C857.522 194.968 857.427 195.145 857.236 195.234V197.093C857.522 197.27 857.903 197.359 857.998 197.802C858.283 198.245 858.378 198.422 858.378 198.865C858.378 199.396 858.283 199.573 858.093 200.016C857.903 200.37 857.617 200.547 857.522 200.636V202.673C858.569 203.292 859.711 203.912 861.043 204.709C862.375 205.595 863.422 206.658 863.993 207.986C864.469 209.137 864.754 210.2 864.754 211.351C864.468 212.06 864.469 212.768 864.183 213.477C868.37 215.514 873.318 218.702 877.981 222.156C882.549 225.521 886.641 229.772 888.639 234.111C893.778 245.182 889.781 255.897 888.354 259.263H889.115C890.066 259.263 890.923 259.971 890.923 260.857C890.923 261.565 890.066 262.097 889.115 262.097H888.829V268.119H892.731V236.768H892.54L892.731 221.005V219.588L892.826 211.174H891.304C890.257 211.174 889.495 210.377 889.495 209.58C889.495 208.695 890.257 208.075 891.304 208.075H892.826L892.921 184.429H892.35C891.494 184.429 890.923 183.721 890.923 183.278C890.923 182.392 891.494 181.861 892.35 181.861H892.921V162.643H892.35C891.589 162.643 891.018 162.201 891.018 161.492C891.018 160.872 891.494 160.252 891.97 160.252V157.153V156.533V156.356C891.97 156.178 891.97 156.178 891.97 156.09V154.584H891.494C891.208 154.584 890.923 154.23 890.923 154.053C890.923 153.61 891.208 153.256 891.494 153.256H892.255C891.97 152.193 891.494 150.245 892.35 148.385C892.826 147.322 893.778 146.437 894.729 145.905C895.871 144.931 896.823 144.311 897.774 143.869C897.679 143.869 897.679 143.603 897.679 143.426C897.679 143.337 897.679 143.071 897.774 142.806C897.869 142.452 898.155 142.274 898.345 142.009C898.726 141.832 898.916 141.832 899.202 141.655V141.035C899.107 141.035 899.107 141.035 899.107 140.769C899.107 140.68 899.107 140.503 899.107 140.503L899.202 140.326L899.297 140.06C899.202 139.883 899.202 139.883 899.202 139.883H899.107C899.107 139.706 899.107 139.706 899.107 139.706C899.107 139.618 899.107 139.618 899.202 139.529C899.202 139.529 899.202 139.529 899.297 139.352V138.909L899.487 135.81H899.582H899.677L899.773 138.909V139.175C899.963 139.352 899.963 139.352 899.963 139.352C899.963 139.352 900.058 139.352 900.058 139.529C900.058 139.529 899.963 139.529 899.963 139.706C899.963 139.706 899.963 139.706 899.963 139.883V140.149C899.963 140.149 899.963 140.326 900.058 140.326C900.058 140.326 900.058 140.503 900.058 140.592C900.058 140.858 899.963 140.858 899.963 140.858V141.566C900.153 141.655 900.534 141.743 900.629 141.92C901.01 142.186 901.2 142.363 901.39 142.717C901.39 142.806 901.39 143.249 901.39 143.337C901.39 143.514 901.39 143.78 901.295 143.78C902.247 144.223 903.294 144.931 904.15 145.817C905.387 146.348 906.148 147.234 906.624 148.297C907.576 150.156 907.1 152.105 906.624 153.167H907.29C907.671 153.167 908.052 153.522 908.052 153.964C908.052 154.142 907.671 154.496 907.29 154.496H906.91V156.267V160.164C907.29 160.164 907.671 160.695 907.671 161.403C907.671 162.112 907.195 162.555 906.529 162.555H905.863V162.643ZM1393.56 195.322H1391.46V193.02C1391.46 193.02 1391.46 192.931 1391.75 192.842C1391.84 192.488 1391.75 192.4 1391.75 192.222C1391.27 190.983 1392.79 190.806 1393.56 190.274C1394.03 190.717 1393.94 191.425 1393.46 192.222C1393.46 192.4 1393.46 192.488 1393.56 192.842C1393.65 192.842 1393.65 193.02 1393.65 193.02V195.322H1393.56ZM1388.99 195.322H1383.94V193.02C1383.94 193.02 1383.94 192.931 1384.23 192.842C1384.51 192.488 1384.23 192.4 1384.23 192.222C1383.75 190.628 1386.23 190.806 1386.42 189.831C1386.8 190.806 1389.37 190.717 1388.7 192.222C1388.61 192.4 1388.51 192.488 1388.7 192.842C1388.89 192.842 1388.89 193.02 1388.89 193.02V195.322H1388.99ZM1381.57 195.322H1379.47V193.02C1379.47 193.02 1379.47 192.931 1379.76 192.842C1379.85 192.488 1379.76 192.4 1379.76 192.222C1379.38 191.425 1379.28 190.628 1379.76 190.274C1380.52 190.806 1381.95 191.071 1381.47 192.222C1381.47 192.4 1381.47 192.488 1381.57 192.842C1381.76 192.842 1381.66 193.02 1381.66 193.02V195.322H1381.57ZM1154.9 197.979H1152.9V195.765C1152.9 195.765 1152.8 195.588 1152.9 195.234C1153.18 195.234 1153.09 195.145 1152.9 194.702C1152.61 193.639 1153.94 193.374 1154.8 192.842C1155.18 193.285 1155.09 193.905 1154.8 194.702C1154.61 195.145 1154.61 195.234 1154.8 195.234C1154.99 195.588 1154.99 195.765 1154.99 195.765V197.979H1154.9ZM1150.23 197.979H1145.47V195.765C1145.47 195.765 1145.47 195.588 1145.47 195.234C1145.76 195.234 1145.76 195.145 1145.66 194.702C1145.09 193.374 1147.66 193.374 1147.85 192.4C1148.14 193.374 1150.52 193.374 1150.14 194.702C1149.95 195.145 1149.95 195.234 1150.14 195.234C1150.33 195.588 1150.14 195.765 1150.14 195.765V197.979H1150.23ZM1142.91 197.979H1140.81V195.765C1140.81 195.765 1140.81 195.588 1140.91 195.234C1141.1 195.234 1141.1 195.145 1140.91 194.702C1140.53 193.994 1140.43 193.374 1140.91 192.842C1141.67 193.285 1143.1 193.551 1142.71 194.702C1142.71 195.145 1142.52 195.234 1142.71 195.234C1143.1 195.588 1143 195.765 1143 195.765V197.979H1142.91ZM1055.26 219.588H1057.55V214.274C1057.55 214.274 1057.64 214.008 1057.36 213.831C1057.26 213.565 1057.26 213.388 1057.36 213.034C1058.02 211.883 1056.21 211.617 1055.36 210.997C1054.88 211.44 1054.98 212.06 1055.36 213.034C1055.45 213.388 1055.45 213.477 1055.36 213.831C1055.17 213.92 1055.17 214.274 1055.17 214.274V219.588H1055.26ZM1060.4 219.588H1065.83V214.274C1065.83 214.274 1065.83 214.008 1065.73 213.831C1065.54 213.565 1065.64 213.388 1065.73 213.034C1066.21 211.351 1063.45 211.351 1063.16 210.377C1062.78 211.44 1060.12 211.44 1060.78 213.034C1060.88 213.388 1060.97 213.477 1060.78 213.831C1060.5 213.92 1060.5 214.274 1060.5 214.274V219.588H1060.4ZM1068.78 219.588H1070.96V214.274C1070.96 214.274 1071.06 214.008 1070.68 213.831C1070.58 213.565 1070.68 213.388 1070.68 213.034C1071.06 212.06 1071.15 211.351 1070.68 210.997C1069.82 211.617 1068.4 211.971 1068.78 213.034C1068.78 213.388 1068.87 213.477 1068.68 213.831C1068.68 213.92 1068.68 214.274 1068.68 214.274V219.588H1068.78ZM912.619 219.588H914.998V214.274C914.998 214.274 914.998 214.008 914.808 213.831C914.618 213.565 914.713 213.388 914.808 213.034C915.284 211.883 913.761 211.617 912.81 210.997C912.334 211.44 912.429 212.06 912.81 213.034C912.81 213.388 912.905 213.477 912.714 213.831C912.524 213.92 912.524 214.274 912.524 214.274V219.588H912.619ZM917.853 219.588H923.277V214.274C923.277 214.274 923.277 214.008 923.182 213.831C922.896 213.565 922.896 213.388 922.992 213.034C923.753 211.351 920.898 211.351 920.708 210.377C920.232 211.44 917.568 211.44 918.138 213.034C918.138 213.388 918.424 213.477 918.138 213.831C917.948 213.92 917.948 214.274 917.948 214.274V219.588H917.853ZM926.037 219.588H928.416V214.274C928.416 214.274 928.416 214.008 928.225 213.831C928.035 213.565 928.035 213.388 928.225 213.034C928.416 212.06 928.796 211.351 928.225 210.997C927.274 211.617 925.846 211.971 926.227 213.034C926.417 213.388 926.417 213.477 926.227 213.831C926.037 213.92 926.037 214.274 926.037 214.274V219.588ZM1481.48 117.655H1475.77V99.5884C1475.77 99.5884 1475.49 99.0571 1476.15 98.5257C1476.63 97.9943 1476.44 97.3744 1476.15 96.8431C1474.92 93.832 1478.82 93.2121 1481.1 91.7066C1482.34 92.9464 1481.86 94.7176 1481.1 96.8431C1480.82 97.3744 1480.44 97.9943 1481.1 98.5257C1481.58 99.0571 1481.48 99.5884 1481.48 99.5884V117.655ZM1468.92 117.655H1455.5V99.5884C1455.5 99.5884 1455.31 99.0571 1455.88 98.5257C1456.46 97.9943 1456.27 97.3744 1456.07 96.8431C1454.36 92.9464 1461.4 93.1235 1462.17 90.201C1462.83 93.1235 1469.78 92.9464 1468.35 96.8431C1467.97 97.3744 1467.78 97.9943 1468.35 98.5257C1468.92 99.0571 1468.83 99.5884 1468.83 99.5884V117.655H1468.92ZM1448.75 117.655H1442.75V99.5884C1442.75 99.5884 1442.66 99.0571 1443.13 98.5257C1443.8 97.9943 1443.42 97.3744 1443.23 96.8431C1442.37 94.7176 1441.99 92.9464 1443.13 91.7066C1445.32 93.3006 1449.22 93.7434 1448.08 96.8431C1447.89 97.3744 1447.61 97.9943 1448.37 98.5257C1448.75 99.0571 1448.75 99.5884 1448.75 99.5884V117.655ZM817.555 166.806H815.081V158.57C815.081 158.57 814.986 158.481 815.176 158.038C815.271 157.861 815.271 157.595 815.176 157.33C814.7 155.824 816.508 155.558 817.555 155.116C817.935 155.47 817.84 156.267 817.555 157.33C817.269 157.507 817.269 157.773 817.555 158.038C817.65 158.392 817.555 158.57 817.555 158.57V166.806ZM811.94 166.806H805.755V158.57C805.755 158.57 805.755 158.481 805.945 158.038C806.231 157.861 806.136 157.595 805.945 157.33C805.374 155.47 808.42 155.559 808.895 154.23C809.276 155.559 812.416 155.47 811.56 157.33C811.56 157.507 811.465 157.773 811.75 158.038C811.941 158.392 811.94 158.57 811.94 158.57V166.806ZM802.52 166.806H799.95V158.57C799.95 158.57 799.855 158.481 800.236 158.038C800.331 157.861 800.331 157.595 800.236 157.33C799.855 156.178 799.57 155.47 800.236 155.116C801.092 155.647 802.9 155.913 802.234 157.33C802.234 157.507 802.139 157.773 802.234 158.038C802.615 158.392 802.52 158.57 802.52 158.57V166.806ZM1024.24 219.588H1028.05V216.665C1028.05 216.665 1028.05 216.488 1027.67 216.134C1027.57 215.602 1027.57 215.337 1027.67 215.071C1028.43 213.123 1025.86 212.768 1024.62 211.971C1023.86 212.591 1024.15 213.743 1024.62 215.071C1024.62 215.337 1024.91 215.602 1024.53 216.134C1024.15 216.488 1024.24 216.665 1024.24 216.665V219.588ZM1032.33 219.588H1040.89V216.665C1040.89 216.665 1040.89 216.488 1040.51 216.134C1040.23 215.602 1040.32 215.337 1040.51 215.071C1041.56 212.591 1037.09 212.591 1036.61 210.82C1036.14 212.591 1031.66 212.591 1032.71 215.071C1032.9 215.337 1033 215.602 1032.62 216.134C1032.23 216.488 1032.33 216.665 1032.33 216.665V219.588ZM1045.08 219.588H1048.79V216.665C1048.79 216.665 1048.79 216.488 1048.41 216.134C1048.22 215.602 1048.32 215.337 1048.41 215.071C1049.08 213.654 1049.27 212.591 1048.41 211.971C1047.08 212.768 1044.7 213.123 1045.56 215.071C1045.65 215.337 1045.94 215.602 1045.27 216.134C1045.08 216.488 1045.08 216.665 1045.08 216.665V219.588ZM934.887 219.588H938.503V216.665C938.503 216.665 938.693 216.488 938.312 216.134C938.027 215.602 938.122 215.337 938.312 215.071C938.978 213.123 936.504 212.768 935.077 211.971C934.411 212.591 934.696 213.743 935.077 215.071C935.362 215.337 935.457 215.602 935.077 216.134C934.886 216.488 934.887 216.665 934.887 216.665V219.588ZM942.88 219.588H951.349V216.665C951.349 216.665 951.444 216.488 951.254 216.134C950.683 215.602 950.968 215.337 951.064 215.071C952.11 212.591 947.733 212.591 947.257 210.82C946.781 212.68 942.309 212.68 943.165 215.071C943.356 215.337 943.546 215.602 943.165 216.134C942.88 216.488 942.88 216.665 942.88 216.665V219.588ZM955.822 219.588H959.438V216.665C959.438 216.665 959.438 216.488 959.343 216.134C958.772 215.602 958.962 215.337 959.057 215.071C959.533 213.654 959.914 212.591 959.057 211.971C957.725 212.768 955.346 213.123 956.107 215.071C956.297 215.337 956.392 215.602 956.012 216.134C955.631 216.488 955.822 216.665 955.822 216.665V219.588ZM1093.04 137.846H1090.38V129.433C1090.38 129.433 1090.38 129.345 1090.57 128.902C1090.76 128.725 1090.57 128.636 1090.57 128.193C1090.09 126.776 1091.99 126.599 1092.76 125.979C1093.33 126.511 1093.14 127.308 1092.76 128.193C1092.57 128.636 1092.57 128.725 1092.76 128.902C1093.14 129.256 1093.04 129.433 1093.04 129.433V137.846ZM1087.24 137.846H1081.05V129.433C1081.05 129.433 1081.05 129.345 1081.34 128.902C1081.43 128.725 1081.34 128.636 1081.34 128.193C1080.77 126.422 1083.81 126.599 1084.1 125.182C1084.48 126.599 1087.62 126.422 1086.95 128.193C1086.95 128.636 1086.76 128.725 1087.05 128.902C1087.24 129.256 1087.24 129.433 1087.24 129.433V137.846ZM1078.1 137.846H1075.34V129.433C1075.34 129.433 1075.25 129.345 1075.53 128.902C1075.72 128.725 1075.72 128.636 1075.53 128.193C1075.15 127.308 1075.06 126.422 1075.53 125.979C1076.48 126.688 1078.2 126.865 1077.82 128.193C1077.72 128.636 1077.53 128.725 1077.82 128.902C1078.1 129.256 1078.1 129.433 1078.1 129.433V137.846ZM1190.01 160.872C1189.91 161.138 1189.63 161.226 1189.53 161.581V160.872H1190.01ZM1190.2 69.4779H1186.3V65.4927C1186.3 65.4927 1186.2 65.1385 1186.58 64.5186C1187.06 64.3414 1186.77 64.0758 1186.68 63.5444C1185.82 61.6846 1188.49 61.3304 1189.82 60.1791C1190.68 61.1533 1190.29 62.216 1189.82 63.5444C1189.53 63.9872 1189.44 64.2529 1189.91 64.5186C1190.2 65.1385 1190.2 65.4927 1190.2 65.4927V69.4779ZM1181.92 69.4779H1173.26V65.4927C1173.26 65.4927 1173.26 65.1385 1173.36 64.5186C1173.64 64.3414 1173.45 64.0758 1173.45 63.5444C1172.4 61.1533 1176.97 61.1533 1177.45 59.2049H1177.54C1178.21 61.1533 1182.59 61.1533 1181.54 63.5444C1181.44 63.9872 1181.35 64.2529 1181.64 64.5186C1181.92 65.1385 1181.92 65.4927 1181.92 65.4927V69.4779ZM1168.5 69.4779H1164.79V65.4927C1164.79 65.4927 1164.79 65.1385 1165.17 64.5186C1165.36 64.3414 1165.36 64.0758 1165.17 63.5444C1164.7 62.216 1164.41 60.8876 1165.17 60.1791C1166.6 61.3304 1168.98 61.6846 1168.31 63.5444C1168.31 63.9872 1168.03 64.2529 1168.31 64.5186C1168.79 65.1385 1168.5 65.4927 1168.5 65.4927V69.4779ZM906.624 160.252H904.531V158.038C904.531 158.038 904.531 157.861 904.626 157.595C904.721 157.595 904.721 157.241 904.626 157.064C904.245 155.913 905.863 155.824 906.434 155.293C907.1 155.647 906.814 156.267 906.434 157.064C906.339 157.241 906.339 157.595 906.434 157.595C906.814 157.861 906.719 158.038 906.719 158.038V160.252H906.624ZM901.866 160.252H897.203V158.038C897.203 158.038 897.013 157.861 897.203 157.595C897.298 157.595 897.298 157.241 897.203 157.064C896.727 155.647 899.202 155.647 899.487 154.673C899.677 155.647 902.152 155.647 901.676 157.064C901.581 157.241 901.581 157.595 901.676 157.595C901.771 157.861 901.771 158.038 901.771 158.038V160.252H901.866ZM894.539 160.252H892.445V158.038C892.445 158.038 892.445 157.861 892.54 157.595C892.921 157.595 892.826 157.241 892.636 157.064C892.35 156.267 892.065 155.559 892.636 155.293C893.397 155.647 894.729 155.913 894.349 157.064C894.349 157.241 894.253 157.595 894.444 157.595C894.729 157.861 894.634 158.038 894.634 158.038V160.252H894.539Z" fill="#C89428"/>
</svg>
