<svg width="16" height="16" viewBox="0 0 16 16" fill="none" xmlns="http://www.w3.org/2000/svg">
<path fill-rule="evenodd" clip-rule="evenodd" d="M14.6663 8.00016C14.6663 11.6821 11.6816 14.6668 7.99967 14.6668C4.31778 14.6668 1.33301 11.6821 1.33301 8.00016C1.33301 4.31826 4.31778 1.3335 7.99967 1.3335C11.6816 1.3335 14.6663 4.31826 14.6663 8.00016ZM3.64005 7.38905C3.88855 5.20008 5.74903 3.50016 8.00605 3.50016C9.43165 3.50016 10.6989 4.17878 11.501 5.22847C11.6687 5.44789 11.6268 5.76168 11.4073 5.92934C11.1879 6.097 10.8741 6.05505 10.7065 5.83563C10.0856 5.02313 9.10719 4.50016 8.00605 4.50016C6.30109 4.50016 4.8906 5.75495 4.64854 7.38905H4.89069C5.09298 7.38905 5.27534 7.51095 5.35269 7.69787C5.43004 7.88479 5.38714 8.0999 5.244 8.24285L4.46516 9.02062C4.26995 9.21556 3.95374 9.21556 3.75854 9.02062L2.9797 8.24285C2.83656 8.0999 2.79365 7.88479 2.871 7.69787C2.94835 7.51095 3.13071 7.38905 3.33301 7.38905H3.64005ZM12.2408 6.9797C12.0456 6.78476 11.7294 6.78476 11.5342 6.9797L10.7554 7.75748C10.6122 7.90042 10.5693 8.11554 10.6467 8.30246C10.724 8.48938 10.9064 8.61127 11.1087 8.61127H11.3508C11.1088 10.2454 9.69827 11.5002 7.99331 11.5002C6.89731 11.5002 5.9229 10.9821 5.30161 10.176C5.13302 9.95734 4.81906 9.9167 4.60035 10.0853C4.38164 10.2539 4.34101 10.5678 4.50959 10.7865C5.31225 11.8279 6.57438 12.5002 7.99331 12.5002C10.2503 12.5002 12.1108 10.8002 12.3593 8.61127H12.6664C12.8686 8.61127 13.051 8.48938 13.1284 8.30246C13.2057 8.11554 13.1628 7.90042 13.0197 7.75748L12.2408 6.9797Z" fill="#CCCCCC"/>
</svg>
