<svg width="598" height="165" viewBox="0 0 598 165" fill="none" xmlns="http://www.w3.org/2000/svg">
<path d="M0.5 1L25.3757 15.3738C50.2493 29.7453 100.001 58.4907 149.75 58.4907C199.499 58.4907 249.251 29.7453 299 29.7453C348.749 29.7453 398.501 58.4907 448.25 58.4907C497.999 58.4907 547.751 29.7453 572.624 15.3738L597.5 1" stroke="#24A599" stroke-width="2"/>
<path d="M0.5 93.868L25.3757 80.0477C50.2493 66.2274 100.001 38.5889 149.75 38.5889C199.499 38.5889 249.251 66.2274 299 66.2274C348.749 66.2274 398.501 38.5889 448.25 38.5889C497.999 38.5889 547.751 66.2274 572.624 80.0477L597.5 93.868" stroke="#24A599" stroke-width="2"/>
<path d="M0.5 17.585L25.3757 31.9565C50.2493 46.3281 100.001 75.0734 149.75 75.0734C199.499 75.0734 249.251 46.3281 299 46.3281C348.749 46.3281 398.501 75.0734 448.25 75.0734C497.999 75.0734 547.751 46.3281 572.624 31.9565L597.5 17.585" stroke="#24A599" stroke-width="2"/>
<path d="M0.5 113.768L25.3757 99.396C50.2493 85.0222 100.001 56.2791 149.75 56.2791C199.499 56.2791 249.251 85.0222 299 85.0222C348.749 85.0222 398.501 56.2791 448.25 56.2791C497.999 56.2791 547.751 85.0222 572.624 99.396L597.5 113.768" stroke="#24A599" stroke-width="2"/>
<path d="M0.5 34.168L25.3757 48.5395C50.2493 62.9111 100.001 91.6565 149.75 91.6565C199.499 91.6565 249.251 62.9111 299 62.9111C348.749 62.9111 398.501 91.6565 448.25 91.6565C497.999 91.6565 547.751 62.9111 572.624 48.5395L597.5 34.168" stroke="#24A599" stroke-width="2"/>
<path d="M0.5 130.351L25.3757 115.979C50.2493 101.608 100.001 72.8623 149.75 72.8623C199.499 72.8623 249.251 101.608 299 101.608C348.749 101.608 398.501 72.8623 448.25 72.8623C497.999 72.8623 547.751 101.608 572.624 115.979L597.5 130.351" stroke="#24A599" stroke-width="2"/>
<path d="M0.5 54.0674L25.3757 67.8877C50.2493 81.7059 100.001 109.344 149.75 109.344C199.499 109.344 249.251 81.7059 299 81.7059C348.749 81.7059 398.501 109.344 448.25 109.344C497.999 109.344 547.751 81.7059 572.624 67.8877L597.5 54.0674" stroke="#24A599" stroke-width="2"/>
<path d="M0.5 146.934L25.3757 132.562C50.2493 118.191 100.001 89.4453 149.75 89.4453C199.499 89.4453 249.251 118.191 299 118.191C348.749 118.191 398.501 89.4453 448.25 89.4453C497.999 89.4453 547.751 118.191 572.624 132.562L597.5 146.934" stroke="#24A599" stroke-width="2"/>
<path d="M0.5 70.6504L25.3757 84.4707C50.2493 98.2889 100.001 125.927 149.75 125.927C199.499 125.927 249.251 98.2889 299 98.2889C348.749 98.2889 398.501 125.927 448.25 125.927C497.999 125.927 547.751 98.2889 572.624 84.4707L597.5 70.6504" stroke="#24A599" stroke-width="2"/>
<path d="M0.5 163.517L25.3757 149.145C50.2493 134.774 100.001 106.028 149.75 106.028C199.499 106.028 249.251 134.774 299 134.774C348.749 134.774 398.501 106.028 448.25 106.028C497.999 106.028 547.751 134.774 572.624 149.145L597.5 163.517" stroke="#24A599" stroke-width="2"/>
</svg>
