<svg width="256" height="256" viewBox="0 0 256 256" fill="none" xmlns="http://www.w3.org/2000/svg">
<path d="M155.124 140.234C155.124 147.5 153.053 154.602 149.173 160.643C145.293 166.684 139.779 171.392 133.327 174.172C126.875 176.953 119.776 177.68 112.927 176.263C106.078 174.845 99.7863 171.347 94.8483 166.209C89.9103 161.072 86.5475 154.527 85.1851 147.401C83.8228 140.275 84.522 132.889 87.1944 126.177C89.8668 119.465 94.3924 113.727 100.199 109.691C106.005 105.655 112.832 103.5 119.815 103.5C129.18 103.5 138.16 107.37 144.782 114.259C151.404 121.148 155.124 130.492 155.124 140.234V140.234ZM154.716 191.832C152.823 191.844 150.96 192.328 149.284 193.245L148.51 193.711C137.581 200.054 124.993 202.605 112.575 200.995C100.157 199.385 88.5553 193.697 79.4571 184.758C70.3588 175.819 64.2376 164.094 61.9831 151.287C59.7285 138.48 61.4581 125.259 66.9204 113.546V74.6639C51.2986 88.3603 41.1299 107.61 38.3907 128.673C35.6515 149.735 40.5375 171.104 52.0991 188.627C63.6607 206.15 81.0717 218.574 100.948 223.486C120.824 228.397 141.746 225.444 159.646 215.2C160.23 214.875 160.814 214.536 161.384 214.183C163.458 212.699 165.021 210.565 165.846 208.091C166.671 205.618 166.714 202.935 165.969 200.434C165.225 197.933 163.731 195.745 161.707 194.19C159.682 192.635 157.233 191.794 154.716 191.789V191.832ZM119.869 54.5873C112.176 54.5831 104.52 55.6958 97.1227 57.8934L84.561 30.1167V91.2932C95.3388 82.8967 108.559 78.6017 122.015 79.1256C135.47 79.6496 148.345 84.9607 158.489 94.1718C168.634 103.383 175.433 115.936 177.752 129.735C180.071 143.534 177.768 157.743 171.23 169.989C170.985 170.455 170.727 170.936 170.456 171.402C169.662 173.076 169.253 174.918 169.261 176.785C169.275 179.435 170.114 182.009 171.652 184.121C173.19 186.234 175.345 187.771 177.793 188.503C180.241 189.234 182.851 189.121 185.233 188.181C187.614 187.24 189.638 185.522 191.002 183.284L191.437 182.521C198.537 169.493 202.231 154.756 202.15 139.78C202.069 124.804 198.216 110.111 190.975 97.167C183.734 84.2231 173.358 73.48 160.882 66.0089C148.405 58.5378 134.265 54.5997 119.869 54.5873V54.5873ZM206.593 201.411C204.267 201.411 201.993 202.128 200.059 203.473C198.125 204.817 196.617 206.728 195.727 208.964C194.837 211.2 194.604 213.66 195.058 216.033C195.512 218.406 196.632 220.587 198.277 222.298C199.921 224.009 202.017 225.174 204.298 225.646C206.579 226.118 208.944 225.876 211.093 224.95C213.242 224.024 215.079 222.456 216.371 220.444C217.663 218.432 218.353 216.066 218.353 213.646C218.357 212.037 218.055 210.443 217.466 208.955C216.876 207.467 216.01 206.115 214.918 204.976C213.826 203.837 212.528 202.933 211.099 202.317C209.671 201.7 208.139 201.383 206.593 201.383V201.411Z" fill="#5B3ACC"/>
</svg>
